/* XPM */
static char *dirt[] = {
/* columns rows colors chars-per-pixel */
"32 32 26 1 ",
"  c #C5D358",
". c #C4D259",
"X c #C4D15B",
"o c #C5D35A",
"O c #C6D459",
"+ c #C7D55A",
"@ c #C6D45B",
"# c #C4D15D",
"$ c #C5D25C",
"% c #C6D35D",
"& c #C6D35F",
"* c #C7D55C",
"= c #C7D45E",
"- c #C8D65B",
"; c #C8D65D",
": c #C8D55F",
"> c #C7D460",
", c #C8D561",
"< c #C9D660",
"1 c #CAD761",
"2 c #C9D662",
"3 c #CAD763",
"4 c #C9D664",
"5 c #CBD862",
"6 c #CBD866",
"7 c #CDDA68",
/* pixels */
"7622212:2222222222222222212;2267",
"4>&>&&;->;2>>22>>22>>:>2o::&:&>4",
">&#o&ooo&&&&>&&&&&&&&&&&oo&XX#>>",
"22&o&;;o&o&&&&o&o:o&:o&&o--:&:>2",
"2>::-;;OO;**&-;o:O;:O;:O-;;;:::;",
";:ooo-oo;-;;-;;-;;;;;;;;oOOOoX:2",
"2:ooO O -----O--OO-OO-O- OoOoo::",
"2;Oo---OO  OOoo-OOOOOOOOOO-O:O:;",
"2>:&;;OoOo-o;oooooo;o;;oO-;:&&>2",
"2:&&O;-o:o;ooo;o;;ooooooOO;;o:>2",
">>&o:--Oo;ooo;o;oo;o;oo;OO;O&&>2",
"2:&:;;OOooo;o;ooo;oo;oo;O-;;&>22",
"2>#:O:OO;oo;oo;ooo;o-oooOO;Oo&:>",
"22:oO:-O;oo;o;oo;o;ooo;oO-;::&>2",
"22>&:;-Ooooooo;;o;ooO:OoO-;O&&>6",
"2>>&O;OOo;;o;oooooo;oo::OO;O&:>2",
"2>&&O;-Oooo;o;;o;;oooo;;o-;O&&;2",
"2;&o;-- ;;ooooooooo;;ooo -;-&&22",
"22&&*;- oo;o;oo;ooo;;ooo --&&&>2",
"2>&&*;-Oo;oo;oo;;;oooo;;o---&&22",
"2>>&&--Ooo;o;ooooo;oo;oo -;:o&:2",
"22&&-;Oo;o;ooo;oo;oooo;ooo;;&&>2",
"22&o;;-oo;ooo;o:oo;;;;ooO-;O&&22",
"2>&&o---ooo;o-oO;oooooo; ---&&>2",
"2-ooO;-OOOOOOOooo OoOOOO ---oo;1",
"::ooOOO O--OO--O---O-O-O  o-oo:;",
";:oXO-O ;;;:;-;;-;-;;;O; o-ooo:;",
"12::;;;OO:OO;:O;O-:;O::O---;::22",
"2>o&:;O:&&o&:o&&&&&o&&o&:OO:&&:>",
">&#X&Xo >>:&&&&>&&&:&>:& o&XXX>>",
"4>:&:;&o2>>>:>2>>2>>>22>o:::&>>4",
"761225:22222222222222222;2122267"
};
