/* XPM */
static char *coin[] = {
/* columns rows colors chars-per-pixel */
"32 32 61 1 ",
"  c #74570A",
". c #8C6706",
"X c #AD8100",
"o c #90B41F",
"O c #8EB223",
"+ c #92B722",
"@ c #91B425",
"# c #93B823",
"$ c #96BB23",
"% c #96BC20",
"& c #94B925",
"* c #97BC24",
"= c #98BF21",
"- c #98BE26",
"; c #99BE26",
": c #CA9911",
"> c #E7AE13",
", c #99C022",
"< c #9AC022",
"1 c #9CC323",
"2 c #9DC423",
"3 c #9BC127",
"4 c #9CC227",
"5 c #9FC724",
"6 c #9FC626",
"7 c #9DC328",
"8 c #9EC429",
"9 c #9FC529",
"0 c #9FC628",
"q c #9EC12D",
"w c #A0C727",
"e c #A3CB26",
"r c #A4CD26",
"t c #A5CE27",
"y c #A0C52D",
"u c #A2CA28",
"i c #A3CC29",
"p c #A4CD2A",
"a c #A5CD2A",
"s c #A5CE2A",
"d c #A6CB2F",
"f c #A7D028",
"g c #A8D129",
"h c #A8D228",
"j c #ABD529",
"k c #AAD42A",
"l c #ACD52A",
"z c #ACD62A",
"x c #A7CE30",
"c c #A7CE31",
"v c #A9CE30",
"b c #A9D031",
"n c #AED431",
"m c #B0D732",
"M c #B2D933",
"N c #B2DC35",
"B c #B3DD35",
"V c #B8E035",
"C c #B8E136",
"Z c #B9E236",
"A c #FFD500",
/* pixels */
"o=tNkfuk9zp9zgzBzgCpzzfkkkpf-,c$",
"<nxhlakkzzpzzzzzpzzzBCzpz9ui,5xx",
"5mhlhalZZzzzCzzzz9zpzBzCz9pg;zaa",
"teha9kflBCzCz9pzp9gzzzNfpzkzszz5",
"f3zz9flazBpCf9zfzzgpzzzzzszkzsuz",
"gzpzalkfppgzzaf9zpzz9pzpzNzzZzfp",
"zpzsBZzzzgzzzzaXXXXp9zznzzZgskzz",
"s9fzzNZzZzzpzpXA>>:Xzpzgzzzlzssz",
"s9zzzzBZzzszzXA>XX>:Xkzfzszs9szz",
"zsszszszzszzNXAX>>X:Xaazs8szzzzz",
"zszzszXXXXfffXA>::A:XXXXzzszzZzs",
"zzZzzXA>>:X@* :AAA>XA>>:XZzzZNzz",
"szzZXA>XX>:X&X.:::XA>XX>:XCzBzzs",
"zszsXAX>>X:X& :...XAX>>X:XNzszyz",
"zszzXA>::A:XqO :::XA>::A:Xszkfll",
"zzzZ :AAA>X +&O    :AAA>X 9fzll9",
"zZNzz :::X OXXXX&@X.:::X.X@fzBzz",
"ZNzzsp    OXA>>:X& :....X OzzzZz",
"Nzzzzzz807XA>XX>:XX.:::X.X9fszBz",
"zszszzZzkiXAX>>X:X :....X iz9zzs",
"szzzszNzZzXA>::A:X* :::X 5kkzpzk",
"z8k9szzhhl :AAA>X ,<    5kZhzzpk",
"kfs9zzpzzfz :::X O9zfuxNkCNffe&a",
"tykafzzzszZz    *zzzpszNzNeekk<&",
"e2bkkVkZzsBZzfNfzzzgz9zzzpah2et$",
"<ayztMZlzszBzZgizCzzzzzzskyhtvko",
"s9as<kNippzzgzzqzzNZzzCzlh8ut=a$",
"yu==hkalz9zzzzgzpzzNzCzzyuett=y$",
"o$$O22ikpzzCzsszszszfzpskk99o%oo",
"zfzzfklZzzgpzzszz9zszzzzNzzzzzlh",
"zzsskallNzZzzzzzszzsz9zzfZzZlatl",
"fhfzzfkfzzz9zszZzzszkfzzfzzzfllh"
};
