/* XPM */
static char * coin_xpm[] = {
"32 32 292 2",
"  	c None",
". 	c #84654D",
"+ 	c #906A4E",
"@ 	c #765A45",
"# 	c #6B5341",
"$ 	c #6D5643",
"% 	c #5D4B3C",
"& 	c #5A4739",
"* 	c #5D4A3C",
"= 	c #775C46",
"- 	c #6E5745",
"; 	c #5B4739",
"> 	c #5C4C3E",
", 	c #775C48",
"' 	c #705844",
") 	c #614D3D",
"! 	c #5C493B",
"~ 	c #58463A",
"{ 	c #755A44",
"] 	c #695240",
"^ 	c #574538",
"/ 	c #6F5340",
"( 	c #735742",
"_ 	c #695341",
": 	c #6D5644",
"< 	c #584538",
"[ 	c #5D4C3F",
"} 	c #775D48",
"| 	c #705642",
"1 	c #665140",
"2 	c #88664D",
"3 	c #83674E",
"4 	c #86654D",
"5 	c #6E5441",
"6 	c #5F4C3D",
"7 	c #5F4A3C",
"8 	c #614B3C",
"9 	c #614B3B",
"0 	c #604B3B",
"a 	c #5D4A3B",
"b 	c #5E493A",
"c 	c #5C483A",
"d 	c #5D493B",
"e 	c #5D4839",
"f 	c #604A3A",
"g 	c #624C3C",
"h 	c #5F4A3B",
"i 	c #5D493A",
"j 	c #5A4537",
"k 	c #5B493B",
"l 	c #604B3C",
"m 	c #604C3C",
"n 	c #5F4C3C",
"o 	c #664F3E",
"p 	c #7C5F49",
"q 	c #8D684E",
"r 	c #88694E",
"s 	c #644D3D",
"t 	c #614C3C",
"u 	c #644E3E",
"v 	c #5D4739",
"w 	c #624C3D",
"x 	c #5E4839",
"y 	c #604A3B",
"z 	c #604A3C",
"A 	c #5F493A",
"B 	c #634D3D",
"C 	c #634C3C",
"D 	c #80634B",
"E 	c #87694E",
"F 	c #82624B",
"G 	c #564337",
"H 	c #5C4738",
"I 	c #5B4638",
"J 	c #5E4939",
"K 	c #5D4738",
"L 	c #6A5442",
"M 	c #7E634D",
"N 	c #6C5341",
"O 	c #5E4A3B",
"P 	c #624B3B",
"Q 	c #685141",
"R 	c #5F4A3A",
"S 	c #654E3E",
"T 	c #5D483A",
"U 	c #6B5442",
"V 	c #83654D",
"W 	c #674E3D",
"X 	c #664F3F",
"Y 	c #7A5F49",
"Z 	c #8F6A4E",
"` 	c #7E624B",
" .	c #58473A",
"..	c #654F3F",
"+.	c #5A483A",
"@.	c #5E4B3C",
"#.	c #7A614C",
"$.	c #634C3D",
"%.	c #7E5E47",
"&.	c #805F48",
"*.	c #594638",
"=.	c #5C4638",
"-.	c #2E2835",
";.	c #2E2735",
">.	c #574237",
",.	c #685240",
"'.	c #7D634D",
").	c #8E684D",
"!.	c #654D3D",
"~.	c #604C3D",
"{.	c #545F3B",
"].	c #4F733B",
"^.	c #99E550",
"/.	c #62913F",
"(.	c #506D3B",
"_.	c #5A4538",
":.	c #5A4639",
"<.	c #785D47",
"[.	c #8A694E",
"}.	c #7F624B",
"|.	c #685340",
"1.	c #574438",
"2.	c #71A944",
"3.	c #8FD64D",
"4.	c #483837",
"5.	c #675040",
"6.	c #6D5745",
"7.	c #8B674C",
"8.	c #826149",
"9.	c #644D3C",
"0.	c #5D483C",
"a.	c #559035",
"b.	c #72C436",
"c.	c #7ACB3C",
"d.	c #6BB735",
"e.	c #473837",
"f.	c #624D3D",
"g.	c #604E3F",
"h.	c #725642",
"i.	c #85654E",
"j.	c #89664D",
"k.	c #5E4A3C",
"l.	c #4D3C37",
"m.	c #5BA031",
"n.	c #66AE32",
"o.	c #70B035",
"p.	c #61AD31",
"q.	c #3F3337",
"r.	c #765B46",
"s.	c #745844",
"t.	c #503F39",
"u.	c #523A39",
"v.	c #875D44",
"w.	c #443637",
"x.	c #81644D",
"y.	c #594539",
"z.	c #312935",
"A.	c #302935",
"B.	c #8E593E",
"C.	c #A06946",
"D.	c #4B3336",
"E.	c #322A35",
"F.	c #4D3C38",
"G.	c #574537",
"H.	c #84634A",
"I.	c #7E6049",
"J.	c #5A4A3C",
"K.	c #543C3A",
"L.	c #A66E48",
"M.	c #975E3F",
"N.	c #BC8355",
"O.	c #9E6644",
"P.	c #9B6342",
"Q.	c #885E44",
"R.	c #5A463B",
"S.	c #7D634E",
"T.	c #84654C",
"U.	c #554437",
"V.	c #614C3D",
"W.	c #57413A",
"X.	c #845B43",
"Y.	c #9E6746",
"Z.	c #AB7950",
"`.	c #A46D48",
" +	c #6D4D3E",
".+	c #5B483A",
"++	c #8A674D",
"@+	c #87654D",
"#+	c #453737",
"$+	c #A16D49",
"%+	c #8A523A",
"&+	c #A9714A",
"*+	c #2F2835",
"=+	c #765B45",
"-+	c #88684E",
";+	c #816149",
">+	c #544337",
",+	c #4D3C39",
"'+	c #7E4C38",
")+	c #6F3F33",
"!+	c #854F38",
"~+	c #6C5342",
"{+	c #83654E",
"]+	c #8B684E",
"^+	c #6A5240",
"/+	c #58453B",
"(+	c #4C3134",
"_+	c #7C4936",
":+	c #583433",
"<+	c #4E3D38",
"[+	c #624B3C",
"}+	c #584537",
"|+	c #765D48",
"1+	c #916A4E",
"2+	c #88674E",
"3+	c #684F3E",
"4+	c #352534",
"5+	c #56413A",
"6+	c #554337",
"7+	c #846349",
"8+	c #7E624D",
"9+	c #5A473A",
"0+	c #89674D",
"a+	c #7F5F47",
"b+	c #584638",
"c+	c #68513F",
"d+	c #8F694D",
"e+	c #664E3D",
"f+	c #584639",
"g+	c #82624A",
"h+	c #795F4A",
"i+	c #64503F",
"j+	c #5F493B",
"k+	c #85654D",
"l+	c #836149",
"m+	c #654E3D",
"n+	c #82644D",
"o+	c #795A45",
"p+	c #936B4E",
"q+	c #84644B",
"r+	c #5E4B3D",
"s+	c #5C4739",
"t+	c #59473A",
"u+	c #715845",
"v+	c #8E6A4E",
"w+	c #7A5C46",
"x+	c #604E3E",
"y+	c #5F4B3C",
"z+	c #594537",
"A+	c #5C4839",
"B+	c #614E3E",
"C+	c #82664E",
"D+	c #8C684D",
"E+	c #6F5440",
"F+	c #634E3E",
"G+	c #5A493B",
"H+	c #6C5543",
"I+	c #564539",
"J+	c #5B493C",
"K+	c #705947",
"L+	c #6B5543",
"M+	c #5C4B3D",
"N+	c #685342",
"O+	c #665040",
"P+	c #574639",
"Q+	c #67503F",
"R+	c #695342",
"S+	c #564438",
"T+	c #5C4A3C",
"U+	c #705A47",
"V+	c #665242",
"W+	c #866349",
"X+	c #89684E",
"Y+	c #82644C",
"Z+	c #81624A",
"`+	c #87654C",
" @	c #745B46",
".@	c #8D684D",
"+@	c #87684E",
"@@	c #7D6149",
"#@	c #755A46",
"$@	c #80624A",
"%@	c #88664C",
"&@	c #8C694E",
"*@	c #785C47",
"=@	c #7E5F48",
"-@	c #916A4D",
";@	c #8A684E",
">@	c #8B674D",
",@	c #7A5E49",
"'@	c #7D5F49",
")@	c #84664E",
"                                                                ",
". + @ # $ % & * = - ; > , ' ) ! ~ { ] ^ / ( _ : < [ } | 1 + 2 3 ",
"4 5 6 7 8 9 0 a b c d 6 e f g 9 h i j k l 7 m c d n e h 6 o p q ",
"r # h g s 9 t e g u v l 9 g g w x y g 9 b z A B v 8 9 9 C y D E ",
"F G y 9 x j H I J u g 9 B A K A A 9 B 9 9 9 9 C g 9 g 9 f b L M ",
"N h O g g 9 P 9 y 9 f J J g y H H A Q R e I f S B 0 e y e T U V ",
"W i e J x e 9 9 A 9 b y X R K J R g g 9 9 A y x x A 9 g y d Y Z ",
"`  .9 9 B 9 9 x 0 e H H f 9 ..9 R e 9 9 9 9 9 9 x A 9 B 9 +.@.#.",
"D ; w f 9 $.y R 9 9 g J J f 9 g 9 9 J J f g 9 g 9 J J 9 t ) %.2 ",
"&.*.9 C =.e H x $.b e x 9 9 9 -.;.>.9 g A e A 9 9 9 9 9 e i ,.'.",
").!.~.O f B P g 9 9 g 9 b {.].^.^./.(._.e f 9 S g 9 J g y :.<.[.",
"}.|.c B y y l H J X B e 1.2.^.^.^.^.3.4.9 5.f I e x 9 9 b O 6.7.",
"8.9.e f 9 g R 9 9 x H e 0.a.b.^.^.c.d.e.J x 9 g J H e C f.g.h.i.",
"j.k.f f 9 9 R y 9 9 9 R x l.m.n.o.p.q.9 9 g 9 g 9 9 9 9 9 h r.V ",
"s.i b P B J J J 0 9 9 f y 9 t.u.v.w.9 B x A 9 R y 9 g C y e C x.",
"f e 0 g e e 8 9 x J g 9 y.z.A.B.C.D.E.F.9 R y 9 9 R w 9 e l G.H.",
"I.J.e x C 9 9 f 0 9 9 x K.L.M.N.N.O.P.Q.R.f e e g 0 J 9 0 e ] S.",
"T.U.V.f 9 $.y x 9 f y 9 W.X.Y.Z.Z.`.X. +:.J 9 9 9 f 9 9 y .+# ++",
"@+R 9 9 C 9 9 B 9 9 9 9 y #+$+%+%+&+*+b 9 A y 9 9 9 x g 9 b =+-+",
";+>+O g 9 A J x y g A H J ,+'+)+)+!+z.g J g 0 e v K B f b .+~+{+",
"]+^+i R 9 y y Q f H e J 9 /+(+_+_+:+<+A y e A X [+x y g A }+|+1+",
"2+3++.9 f e e A 9 X g 9 e f y.4+4+5+R s 9 g 9 9 g 9 A R O 6+7+8+",
"j.9+f y 9 g y x J 9 g 9 9 A R f 9 P H x H J C A e x 9 y f k.s.0+",
"a+b+f g H e H x g H H e g g y e e R C e H K x R y 9 B B 9 b c+'.",
"d+e+~.O R B g g 9 g f g 9 9 f g 9 9 9 g g g f 9 9 A R 9 e l f+g+",
"h+i+c C 9 A y H A f R y 9 9 A x X B x b j+R f e 9 9 8 9 9 e @.k+",
"l+m+e A 9 g A P g 9 A y g s y H H J g y A g 9 9 g 9 9 9 y < # n+",
"@++.9 9 9 C x A y $.f x x f C A x g 9 9 C A e A 9 R e f 9 i o+p+",
"q+r+s+A R e J 8 X 0 9 R J A e J f X e b f y 9 y 9 A J A J t+u+v+",
"V w+*.x+9 y f y+9 e z+% O 9 9 f l y t 8 O A+f A+z+% O B+a e+k+C+",
"2+D+E+F+~+a G+O : H+I+J+K+L+0 M+& N+O+P+/ | Q+R+S+T+U+V+[+W+X+++",
"[.Y+Z+`+E  @I.Z+0+.@p j.1++@@@#@$@%@&@*@=@-@;@>@,@++1+0+'@0+)@E "};
