/* XPM */
static char *dirt[] = {
/* columns rows colors chars-per-pixel */
"32 32 48 1 ",
"  c #90B41F",
". c #96BC20",
"X c #98BF21",
"o c #98BD25",
"O c #99BE26",
"+ c #9AC022",
"@ c #9CC227",
"# c #9FC624",
"$ c #9FC724",
"% c #9FC725",
"& c #9FC628",
"* c #A0C727",
"= c #A3CB26",
"- c #A4CD27",
"; c #A5CE27",
": c #A0C629",
"> c #A2CA28",
", c #A3CA2B",
"< c #A5CE28",
"1 c #A4CD2A",
"2 c #A5CD2A",
"3 c #A5CF2A",
"4 c #A7CF2A",
"5 c #A5CB2E",
"6 c #A8CE2E",
"7 c #A7D028",
"8 c #A7D02C",
"9 c #A8D228",
"0 c #ABD429",
"q c #ABD529",
"w c #ABD52B",
"e c #ACD52A",
"r c #ACD42B",
"t c #ACD62A",
"y c #ADD72B",
"u c #ADD72D",
"i c #AED82D",
"p c #B0DA2E",
"a c #A7CE30",
"s c #A9D031",
"d c #AED431",
"f c #B0D732",
"g c #B2DB30",
"h c #B1DB34",
"j c #B3DD35",
"k c #B7E034",
"l c #B8E135",
"z c #B9E236",
/* pixels */
" X;hw7>w$w;&w2yjw2z;yy;wwq>2o+s.",
"+da9e2wwwy1wtwwy;ywyjkw2w$=;+$aa",
"$f9e7;wlkiwiziwew&y2yjykw$2w@w27",
";=92&e2ejkizt$1w2&7ywyj22w9w2ww&",
"w$ww&2e7wj;l1&e1wy;7wywyw2wqw22w",
"1w2y2ew7;27ww;2=y2yw$2e1qjqwjww2",
"w2w2jzwwi;wyyw;2wyy;&wiweel92wwe",
"2$7eyjlwlwy2w7wwykwww2w7wyeee22e",
"2&wwwwjzww2ywy;iwwzwwwy;t;y2&;ew",
"u;2e7t7wt7ywjywl;yjwz72e2=;wwyty",
"w7iw2t1&ywwywl2j;yw7ywejww;ytzt7",
"wykewzw$;wy2ywyww7y2w7wwjleezjww",
"7wwzykwyyjyqy;w17wyw1&wwwjlyjwt7",
"w2y;yyy2ywzwwy21wy$yw=i1w7jw7w&w",
"y;wyw$2wwyjylyq$;ywwt;ywywwye;ww",
"wyykyww7yqq;yw;=ewlwttte;yw7ewu$",
"yljww2w&i2yw;ywyw2jztwzwi;&7wjww",
"ljyy;1w=w$;wywy2y7wj7k7w7w$ywwzw",
"jywwewy;ywq;wlwiwi77wyt;w2w2;tjt",
"e;w7yezwy;yqyjlwykwww7ww&2wy=wy;",
"2www;wjyky2wywj7l2t2iwwyewwi71ww",
"w$w&;we;7ww$2wywwywwwkw2ewz7wi;w",
"777&ww;ww7iwy7ww7&7wtwjkezj77;o;",
"2$w7wwwi2wleeewi7www$2wjwj>=w2$.",
";$999lelw2jleekwyeqqy;wyw2127w9$",
"$1222hluw1wjel87wlqwywyw;w$w7ww2",
"a2rw>ej278ww9ee&ttjzwtkyew$wu2i>",
"a==29r999>ewww7w;ttjtzwy$>2wewu$",
"=22$29&1;eekw7;w7e7w7w22ww17292=",
"w9uweeugw=27ww7yw$w7wwywjwwipeg1",
"e9w7i2eeiwjwwyee7uw7e$yw2lezw72r",
"2r2iw4u9www>w7wlww1we;qy2yee2ee2"
};
