/* XPM */
static char *exit[] = {
/* columns rows colors chars-per-pixel */
"32 32 9 1 ",
"  c #2D2D2D",
". c gray20",
"X c #3A3A3A",
"o c gray28",
"O c gray33",
"+ c gray36",
"@ c gray42",
"# c #979797",
"$ c #A4A4A4",
/* pixels */
"o++++++o+++++++o+++++++o+++++++o",
"+@$####@#######@#######@######@+",
"+$@$$$$@$$$$$$$@$$$$$$$@$$$$$@#+",
"+$#XoOO @@@@@@O @@@@@@O @@@@@$#+",
"+$#XXoO OOOOOOO OOOOOOO OOOOO$#+",
"+$#XXXo ooooooo ooooooo ooooO$#+",
"o@@                          @@o",
"+$# XXXXooo OOOOOOo OOO $#@@ $#+",
"+$# XXXXXoo Ooooooo Ooo $@@@ $#+",
"+$# XXXXXXo ooooooo ooo #@@@ $#+",
"+$#                     #@@@ $#+",
"+$# XXX XXXXooo OO #@OO ++++ $#+",
"o@@ XXX XXXXXoo Oo #OOO #@@@ @@o",
"+$#  XX XXXXXXo oo @OOO #@@@ $#+",
"+$#                @OOO #@@@ $#+",
"+$#    XXXX X @Ooo XXXX #@@@ $#+",
"+$#   X XXX X @ooo @OOO #@@@ $#+",
"+$#           Oooo @OOO ++++ $#+",
"o@@           Oooo @OOO #@@@ @@o",
"+$#      OoXX .... @OOO #@@@ $#+",
"+$#      OXXX Oooo @OOO #@@@ $#+",
"+$#      oXXX Oooo XXXX #@@@ $#+",
"+$#      oXXX Oooo @OOO #@@@ $#+",
"+$# oX..      Oooo @OOO ++++ $#+",
"o@@ o... oXXX Oooo @OOO #@@@ @@o",
"+$# X... oXXX .... @OOO #@@@ $#+",
"+$# X... oXXX Oooo @OOO #@@@ $#+",
"+$#      oXXX Oooo XXXX #@@@ $#+",
"+$#                          $#+",
"+$@####@#######@#######@#####@#+",
"+@$$$$$@$$$$$$$@$$$$$$$@$$$$$$@+",
"o++++++o+++++++o+++++++o+++++++o"
};
