/* XPM */
static char *person_a[] = {
/* columns rows colors chars-per-pixel */
"32 32 136 2 ",
"   c #422E37",
".  c #462D3C",
"X  c #4C2F3D",
"o  c #443036",
"O  c #4F3635",
"+  c #4B313A",
"@  c #513736",
"#  c #543837",
"$  c #52333D",
"%  c #563839",
"&  c #5B383E",
"*  c #653F3D",
"=  c #5D5E3A",
"-  c #67403D",
";  c #6B423E",
":  c #54642D",
">  c #58682D",
",  c #5A6433",
"<  c #667C2D",
"1  c #606635",
"2  c #616A35",
"3  c #7D6C3E",
"4  c #6D7A38",
"5  c #777937",
"6  c #553240",
"7  c #5B3541",
"8  c #643B42",
"9  c #6C3D46",
"0  c #6D4142",
"q  c #744445",
"w  c #764846",
"e  c #794C45",
"r  c #794549",
"t  c #7F4A49",
"y  c #775D54",
"u  c #7E6A57",
"i  c #854D4A",
"p  c #894E4C",
"a  c #805047",
"s  c #8D514D",
"d  c #93544F",
"f  c #955B4E",
"g  c #975650",
"h  c #995751",
"j  c #9F5E51",
"k  c #A05B53",
"l  c #9D634E",
"z  c #937547",
"x  c #8A6459",
"c  c #876C5E",
"v  c #B3774F",
"b  c #A36651",
"n  c #AB6655",
"m  c #A46E5F",
"M  c #B46E56",
"N  c #B57255",
"B  c #BB7557",
"V  c #BF7958",
"C  c #A77E69",
"Z  c #B17865",
"A  c #B57D69",
"S  c #6C842D",
"D  c #728B2C",
"F  c #7D9B2C",
"G  c #748537",
"H  c #7B8236",
"J  c #7B8D3A",
"K  c #7C9036",
"L  c #90B41F",
"P  c #849038",
"I  c #83983A",
"U  c #949738",
"Y  c #84A32C",
"T  c #88A72B",
"R  c #8DAE2B",
"E  c #8FB02C",
"W  c #96BC20",
"Q  c #98BE22",
"!  c #91B42C",
"~  c #96BB2C",
"^  c #89A632",
"/  c #8EAB32",
"(  c #92B131",
")  c #98B930",
"_  c #9CBA38",
"`  c #9CC324",
"'  c #9EC429",
"]  c #A0C726",
"[  c #A4CC27",
"{  c #A0C62C",
"}  c #A5CD2A",
"|  c #A7D028",
" . c #ACD62A",
".. c #A3C737",
"X. c #A6CB34",
"o. c #A9CE30",
"O. c #ABD231",
"+. c #B0D732",
"@. c #B3DD35",
"#. c #B9E236",
"$. c #848441",
"%. c #939B4E",
"&. c #BE8053",
"*. c #9E846A",
"=. c #A1846A",
"-. c #AD856C",
";. c #B8856E",
":. c #AA8C73",
">. c #B58F76",
",. c #B19476",
"<. c #BE9378",
"1. c #E2975E",
"2. c #CB8C68",
"3. c #D19465",
"4. c #D7986D",
"5. c #C39276",
"6. c #CC9574",
"7. c #C69479",
"8. c #C79E78",
"9. c #DA9E74",
"0. c #EEA160",
"q. c #E4AA7C",
"w. c #F0AE77",
"e. c #C3A182",
"r. c #CAA686",
"t. c #D6A987",
"y. c #D7AA88",
"u. c #DCAF8C",
"i. c #DDB18D",
"p. c #F1B581",
"a. c #F1BC8B",
"s. c #E0B590",
"d. c #E2BD96",
"f. c #EAC199",
"g. c #F3C598",
"h. c #F4CCA1",
/* pixels */
"L Q } @. .| [ | ' | } {  .}  .@. .| #.}  . .}  . . .| | ` ` X.W ",
"` O.| |  .}  . . . .}  . . . . .|  . . .@.#. .|  .' ' ' ` ' O.' ",
"` +.|  .| }  .#.#.{ K J I K K J K G K ^  .#. .#. .' |  .`  .| } ",
"| [ | } {  .}  ...$.i i p i i p i r . = K / @.| '  . . .}  . .' ",
" .'  . .{ }  .~ 4 q j k k k k j j j l l s , /  . .}  . . .' |  .",
"}  .}  .}  . ./ c r.t.t.7.A t.y.y.7.f l N l z ^  .@. . .#. . .' ",
" .}  .} @.#. .( x <.:.:.C m :.:.>.;.r t V V b G  . .#.| | O. . .",
"} ' |  . .@.#.( 9 p 6 X r s 6 X r j p r N V b G  . . . . .| |  .",
"} {  . . . .@._ q h w 8 g h r 8 g k s 0 b M b G  .|  .| ' |  . .",
" .} |  .}  .| { P i h s A y.<.p j j p 6 i n b G } ' |  .O. . . .",
" .|  . .|  .~ D < + r q x r.f.y.7.h s 6 7 t e J O. .|  . .#. .| ",
" . .#. . .#.E u =.    6 . y r.h.i.k s 6 6 6 X G @.#. . .#.@. . .",
"}  . .#. .#.E *.d.e.5.&.&.&.3.p.9.k h p t 6 2 )  .@.#.+.@. . .| ",
" .| O.|  . .} %.8.a.w.0.0.0.0.1.B k k k s $ : D E } @. .}  .{  .",
" .|  . . .{ | ' U v 4.a.a.q.&.V k k k k s 7 6 + , R  . . .|  . .",
" . . .#. . . .~ 5 s 5.h.h.f.7.k k k k k h i y w + S  .}  . . .' ",
" .#.@. . .} ' 5 s A s.h.h.h.f.7.k k k k k k k d $ S ] }  .@. . .",
"#.@. . .} ~ H s j 5.h.h.h.h.h.s.k k k g ; i k h i 3 D R  . .#. .",
"@. . . . .! ; k A i.h.h.h.h.h.f.7.k k p o @ i k k d ; S }  .@. .",
" .o. .}  .R ; k 5.h.h.h.h.h.h.h.i.k k s $ # p k k k i D {  . .| ",
"|  . . .} ! ; k 5.h.h.h.h.h.h.h.i.k k s 6 9 k k k k i S  .}  . .",
" .'  .' } R ; k 5.h.h.h.h.h.h.h.i.k k s $ * k k k k i S  . .} | ",
"| | } '  .E 9 k Z u.h.h.h.h.g.d.5.k k s $ % d h k g q S | [ W [ ",
"| '  .|  .R & p j 5.h.h.h.h.h.i.h k k s $   9 i i q 1 R | | ` W ",
"] `  .|  ._ . & i Z u.g.a.d.,.C i k k s 7 + + + . 1 E [ ` [ } L ",
"` | [  .} X.J   ; k Z 6.2.-.> S 0 k k h r & + o > ! '  .| |  .L ",
"} ..[ | Q  .X.G ; k k h a * S T O i h i r 7 7 . S | ' }  .L o.L ",
"{ ] Q L | | } R # i k p $ > R { S - h r 7 7 6 , T [ ] } [ Q } Q ",
"W W W L ' ' [ ' S * d r $ S }  .R - j h r 6 o S  . .' [ L L L Q ",
" .|  . .}  . .#.! @ 0 + 2 ! |  .' H w q 0 2 Y ! @. . . . . . .| ",
" . .} }  .}  . .X.Y / Y !  . . .} { Y F Y T  . .} #. .#. .| |  .",
"} | |  . .|  .}  . . .{  .}  .#. . .}  . .|  . .}  . . .|  . .| "
};
