/* XPM */
static char * person_a_xpm[] = {
"32 32 347 2",
"  	c None",
". 	c #84654D",
"+ 	c #906A4E",
"@ 	c #765A45",
"# 	c #7E6844",
"$ 	c #A08548",
"% 	c #6F5D3F",
"& 	c #5A4739",
"* 	c #5D4A3C",
"= 	c #775C46",
"- 	c #5F4D3F",
"; 	c #5B4739",
"> 	c #5C4C3E",
", 	c #775C48",
"' 	c #705844",
") 	c #614D3D",
"! 	c #5C493B",
"~ 	c #58463A",
"{ 	c #755A44",
"] 	c #695240",
"^ 	c #574538",
"/ 	c #6F5340",
"( 	c #735742",
"_ 	c #695341",
": 	c #6D5644",
"< 	c #584538",
"[ 	c #5D4C3F",
"} 	c #775D48",
"| 	c #705642",
"1 	c #665140",
"2 	c #88664D",
"3 	c #83674E",
"4 	c #86654D",
"5 	c #6E5441",
"6 	c #5F4C3D",
"7 	c #756140",
"8 	c #A58443",
"9 	c #8E7844",
"0 	c #6A553D",
"a 	c #5D4A3B",
"b 	c #5E493A",
"c 	c #4B4036",
"d 	c #5D493B",
"e 	c #5D4839",
"f 	c #604A3A",
"g 	c #624C3C",
"h 	c #614B3B",
"i 	c #5F4A3B",
"j 	c #5D493A",
"k 	c #5A4537",
"l 	c #5B493B",
"m 	c #604B3C",
"n 	c #5F4A3C",
"o 	c #604C3C",
"p 	c #5C483A",
"q 	c #5F4C3C",
"r 	c #664F3E",
"s 	c #7C5F49",
"t 	c #8D684E",
"u 	c #88694E",
"v 	c #6B5341",
"w 	c #604B3B",
"x 	c #796440",
"y 	c #9B7B42",
"z 	c #8D7241",
"A 	c #A48B48",
"B 	c #5E4939",
"C 	c #7B6841",
"D 	c #52453B",
"E 	c #5D4739",
"F 	c #624C3D",
"G 	c #5E4839",
"H 	c #604A3B",
"I 	c #604A3C",
"J 	c #5F493A",
"K 	c #634D3D",
"L 	c #614B3C",
"M 	c #634C3C",
"N 	c #80634B",
"O 	c #87694E",
"P 	c #82624B",
"Q 	c #564337",
"R 	c #7F6A41",
"S 	c #9B7E43",
"T 	c #8B6A3A",
"U 	c #A48441",
"V 	c #AF8E44",
"W 	c #9C8344",
"X 	c #74603D",
"Y 	c #644E3E",
"Z 	c #5D4738",
"` 	c #6A5442",
" .	c #7E634D",
"..	c #6C5341",
"+.	c #5F4B3B",
"@.	c #A28442",
"#.	c #674730",
"$.	c #7D5832",
"%.	c #815A32",
"&.	c #B5994B",
"*.	c #8B7744",
"=.	c #75613E",
"-.	c #735F3D",
";.	c #5C4738",
">.	c #685141",
",.	c #5F4A3A",
"'.	c #5B4638",
").	c #654E3E",
"!.	c #5D483A",
"~.	c #6B5442",
"{.	c #83654D",
"].	c #674E3D",
"^.	c #704E2D",
"/.	c #4A3629",
"(.	c #553C2B",
"_.	c #533723",
":.	c #7A5C34",
"<.	c #775C3C",
"[.	c #77623F",
"}.	c #000000",
"|.	c #58473B",
"1.	c #7A5F49",
"2.	c #8F6A4E",
"3.	c #7E624B",
"4.	c #58473A",
"5.	c #584335",
"6.	c #4D3121",
"7.	c #5C422F",
"8.	c #443126",
"9.	c #402D23",
"0.	c #422D21",
"a.	c #5B4738",
"b.	c #73603D",
"c.	c #4F2C14",
"d.	c #5A483A",
"e.	c #5E4B3C",
"f.	c #7A614C",
"g.	c #5F493B",
"h.	c #3F2E24",
"i.	c #553A29",
"j.	c #885B39",
"k.	c #52453A",
"l.	c #75603E",
"m.	c #5D4939",
"n.	c #614C3C",
"o.	c #7E5E47",
"p.	c #805F48",
"q.	c #594638",
"r.	c #614A3B",
"s.	c #D78244",
"t.	c #786340",
"u.	c #9C8144",
"v.	c #6F5B3D",
"w.	c #57473A",
"x.	c #685240",
"y.	c #7D634D",
"z.	c #8E684D",
"A.	c #654D3D",
"B.	c #604C3D",
"C.	c #5E4A3B",
"D.	c #A58442",
"E.	c #8C7643",
"F.	c #6B553D",
"G.	c #4C4036",
"H.	c #5A4639",
"I.	c #785D47",
"J.	c #8A694E",
"K.	c #7F624B",
"L.	c #685340",
"M.	c #78633F",
"N.	c #9A7A41",
"O.	c #745F3F",
"P.	c #A48B47",
"Q.	c #79663F",
"R.	c #51443A",
"S.	c #6D5745",
"T.	c #8B674C",
"U.	c #826149",
"V.	c #644D3C",
"W.	c #624D3D",
"X.	c #604E3F",
"Y.	c #725642",
"Z.	c #85654E",
"`.	c #89664D",
" +	c #5E4A3C",
".+	c #765B46",
"++	c #745844",
"@+	c #624B3B",
"#+	c #81644D",
"$+	c #574537",
"%+	c #84634A",
"&+	c #7E6049",
"*+	c #5A4A3C",
"=+	c #7D634E",
"-+	c #84654C",
";+	c #554437",
">+	c #614C3D",
",+	c #634C3D",
"'+	c #5B483A",
")+	c #8A674D",
"!+	c #87654D",
"~+	c #796340",
"{+	c #75613F",
"]+	c #77633F",
"^+	c #765B45",
"/+	c #88684E",
"(+	c #816149",
"_+	c #544337",
":+	c #705C3D",
"<+	c #9C8245",
"[+	c #61503B",
"}+	c #6C5342",
"|+	c #83654E",
"1+	c #8B684E",
"2+	c #6A5240",
"3+	c #715A42",
"4+	c #76613E",
"5+	c #A38242",
"6+	c #5A4E38",
"7+	c #68543B",
"8+	c #584537",
"9+	c #765D48",
"0+	c #916A4E",
"a+	c #88674E",
"b+	c #684F3E",
"c+	c #624C3B",
"d+	c #997940",
"e+	c #8C7140",
"f+	c #9F8345",
"g+	c #5F503C",
"h+	c #644D3D",
"i+	c #554337",
"j+	c #846349",
"k+	c #7E624D",
"l+	c #5A473A",
"m+	c #8C6B3B",
"n+	c #A58542",
"o+	c #B39246",
"p+	c #B29548",
"q+	c #97783F",
"r+	c #A58543",
"s+	c #AF8F45",
"t+	c #89674D",
"u+	c #7F5F47",
"v+	c #584638",
"w+	c #634D3C",
"x+	c #A18341",
"y+	c #65452F",
"z+	c #7C5831",
"A+	c #805931",
"B+	c #C0A24C",
"C+	c #8D753D",
"D+	c #68513F",
"E+	c #8F694D",
"F+	c #664E3D",
"G+	c #704E2E",
"H+	c #4D392C",
"I+	c #573D2C",
"J+	c #543723",
"K+	c #7C5D31",
"L+	c #6C5331",
"M+	c #563C2B",
"N+	c #584639",
"O+	c #82624A",
"P+	c #795F4A",
"Q+	c #64503F",
"R+	c #5A4436",
"S+	c #5A402D",
"T+	c #433126",
"U+	c #3B2920",
"V+	c #3E271B",
"W+	c #563D2B",
"X+	c #3F2D23",
"Y+	c #664F3F",
"Z+	c #85654D",
"`+	c #836149",
" @	c #654E3D",
".@	c #3F2F24",
"+@	c #563A29",
"@@	c #433227",
"#@	c #473529",
"$@	c #34261D",
"%@	c #513726",
"&@	c #48362A",
"*@	c #4F3C2F",
"=@	c #82644D",
"-@	c #3E2C22",
";@	c #503D30",
">@	c #5E483A",
",@	c #523F31",
"'@	c #795A45",
")@	c #936B4E",
"!@	c #84644B",
"~@	c #5E4B3D",
"{@	c #5C4739",
"]@	c #59473A",
"^@	c #715845",
"/@	c #8E6A4E",
"(@	c #7A5C46",
"_@	c #604E3E",
":@	c #5F4B3C",
"<@	c #594537",
"[@	c #5D4B3C",
"}@	c #5C4839",
"|@	c #614E3E",
"1@	c #82664E",
"2@	c #8C684D",
"3@	c #6F5440",
"4@	c #634E3E",
"5@	c #5A493B",
"6@	c #6C5543",
"7@	c #564539",
"8@	c #5B493C",
"9@	c #705947",
"0@	c #6B5543",
"a@	c #5C4B3D",
"b@	c #685342",
"c@	c #665040",
"d@	c #574639",
"e@	c #67503F",
"f@	c #695342",
"g@	c #564438",
"h@	c #5C4A3C",
"i@	c #705A47",
"j@	c #665242",
"k@	c #624B3C",
"l@	c #866349",
"m@	c #89684E",
"n@	c #82644C",
"o@	c #81624A",
"p@	c #87654C",
"q@	c #745B46",
"r@	c #8D684D",
"s@	c #87684E",
"t@	c #7D6149",
"u@	c #755A46",
"v@	c #80624A",
"w@	c #88664C",
"x@	c #8C694E",
"y@	c #785C47",
"z@	c #7E5F48",
"A@	c #916A4D",
"B@	c #8A684E",
"C@	c #8B674D",
"D@	c #7A5E49",
"E@	c #7D5F49",
"F@	c #84664E",
"                                                                ",
". + @ # $ % & * = - ; > , ' ) ! ~ { ] ^ / ( _ : < [ } | 1 + 2 3 ",
"4 5 6 7 8 9 0 a b c d 6 e f g h i j k l m n o p d q e i 6 r s t ",
"u v w x y z A B C D E m h g g F G H g h b I J K E L h h M H N O ",
"P Q R S T U V W X Y g h K J Z J J h K h h h h M g h g h f b `  .",
"..i +.@.#.$.%.&.*.h f =.-.g H ;.;.b >.,.e '.f ).K w e H e !.~.{.",
"].j e ^./.(._.:.<.h b [.}.}.}.}.,.|.g h h J H G G J h g H d 1.2.",
"3.4.5.6.7.8.9.0.a.e ;.b.}.c.c.}.,.c h h h h h h G J h K h d.e.f.",
"N ; g.h.i.}.}.}.}.}.}.}.}.c.j.}.C k.B =.l.g h g h m.B h n.) o.2 ",
"p.q.h r.}.}.j.j.s.s.s.s.s.s.j.}.}.Z h t.u.v.J h h w.h h e j x.y.",
"z.A.B.C.}.j.j.j.s.s.}.}.s.s.s.s.}.}.,.l.D.E.F.).n.G.B g H H.I.J.",
"K.L.p K }.j.j.s.s.s.s.s.s.s.s.s.s.}.}.M.N.O.P.;.Q.R.h h b C.S.T.",
"U.V.e f }.j.s.s.s.s.s.s.s.s.s.s.s.s.}.}.}.}.}.}.}.;.e M W.X.Y.Z.",
"`. +f f }.j.s.s.s.s.s.s.s.s.s.s.s.s.s.s.s.s.s.s.}.}.h h h i .+{.",
"++j b @+}.}.}.}.}.}.}.}.s.s.s.s.s.s.s.s.s.s.s.s.s.}.g M H e M #+",
"f e w g e e L h G B g }.}.s.s.s.s.s.s.s.j.j.s.s.s.}.F h e m $+%+",
"&+*+e G M h h f w h h G }.s.s.s.s.s.s.s.s.s.s.s.s.}.B h w e ] =+",
"-+;+>+f h ,+H G h f H h }.s.s.s.s.s.j.j.s.s.j.j.s.}.h h H '+v )+",
"!+,.h h ~+{+h K ]+{+w h }.}.s.s.s.s.s.s.s.s.s.s.s.}.}.g h b ^+/+",
"(+_+C.g ]+u.:+G [.<+[+;.B }.s.s.s.s.s.s.s.s.s.s.s.s.}.f b '+}+|+",
"1+2+j ,.[.8 9 3+4+5+6+7+h }.c.s.s.}.}.}.}.s.s.s.s.c.}.}.J 8+9+0+",
"a+b+d.c+M.d+e+P.x f+g+A }.}.c.c.}.}.}.h+}.}.}.s.c.c.c.}.C.i+j+k+",
"`.l+f R S m+n+o+p+q+r+s+}.c.c.c.}.}.}.G ;.}.}.}.c.c.c.}.f  +++t+",
"u+v+f w+x+y+z+A+B+C+z+A+}.c.c.}.}.}.}.e }.}.}.}.c.c.}.}.h b D+y.",
"E+F+B.C.G+H+I+J+K+L+M+J+}.c.}.}.h }.}.g }.}.f }.c.c.}.h e m N+O+",
"P+Q+p R+6.S+T+U+V+W+T+X+}.}.}.G Y+K G b g.,.f }.}.}.}.h h e e.Z+",
"`+ @e ;..@+@@@#@$@%@@@&@*@J H ;.;.B g H J g h h g h h h H < v =@",
"!+d.h h J -@;@e >@-@,@;.G f M J G g h h M J e J h ,.e f h j '@)@",
"!@~@{@J ,.'.B L Y+b h ,.B J e B f Y+e b f H h H h J B J B ]@^@/@",
"{.(@q._@h H f :@h e <@[@C.h h f m H n.L C.}@f }@<@[@C.|@a F+Z+1@",
"a+2@3@4@}+a 5@C.: 6@7@8@9@0@w a@& b@c@d@/ | e@f@g@h@i@j@k@l@m@)+",
"J.n@o@p@O q@&+o@t+r@s `.0+s@t@u@v@w@x@y@z@A@B@C@D@)+0+t+E@t+F@O "};
