/* XPM */
<<<<<<< HEAD
static char *person_d[] = {
/* columns rows colors chars-per-pixel */
"32 32 135 2 ",
"   c #422E37",
".  c #462D3C",
"X  c #4C2F3D",
"o  c #443036",
"O  c #4B313A",
"+  c #513736",
"@  c #543837",
"#  c #52333D",
"$  c #563839",
"%  c #5B383E",
"&  c #653F3D",
"*  c #5C5D3A",
"=  c #67403D",
"-  c #6B423E",
";  c #52612D",
":  c #58682D",
">  c #5B6434",
",  c #606635",
"<  c #636C35",
"1  c #7D6C3E",
"2  c #6A7F30",
"3  c #6D7A38",
"4  c #553240",
"5  c #5B3541",
"6  c #643B42",
"7  c #6C3D46",
"8  c #6D4142",
"9  c #744445",
"0  c #764846",
"q  c #794C45",
"w  c #794549",
"e  c #7F4A49",
"r  c #775D54",
"t  c #7E6A57",
"y  c #854D4A",
"u  c #894E4C",
"i  c #805047",
"p  c #8D514D",
"a  c #93544F",
"s  c #975650",
"d  c #995751",
"f  c #9F5E51",
"g  c #A05B53",
"h  c #9D634E",
"j  c #927347",
"k  c #8A6459",
"l  c #876C5E",
"z  c #B3774F",
"x  c #A36651",
"c  c #A46E5F",
"v  c #B57255",
"b  c #BB7557",
"n  c #BF7958",
"m  c #A77E69",
"M  c #B17865",
"N  c #B57D69",
"B  c #C77F59",
"V  c #6C842D",
"C  c #718A2D",
"Z  c #77922C",
"A  c #79952C",
"S  c #758636",
"D  c #7C8337",
"F  c #778B36",
"G  c #7D8E3A",
"H  c #7C9036",
"J  c #90B41F",
"K  c #829339",
"L  c #84993A",
"P  c #83A12C",
"I  c #8AAB2C",
"U  c #8FB02C",
"Y  c #96BC20",
"T  c #98BE22",
"R  c #92B52B",
"E  c #96BB2C",
"W  c #99BF2B",
"Q  c #89A632",
"!  c #8DAB32",
"~  c #93B332",
"^  c #9ABC33",
"/  c #94B238",
"(  c #98B539",
")  c #9CC324",
"_  c #9EC42A",
"`  c #9DC034",
"'  c #A0C726",
"]  c #A4CC27",
"[  c #A0C62C",
"{  c #A5CD2A",
"}  c #A7D028",
"|  c #ACD62A",
" . c #A7CE30",
".. c #A9CE30",
"X. c #ABD231",
"o. c #B0D732",
"O. c #B3DD35",
"+. c #B9E236",
"@. c #828141",
"#. c #BE8053",
"$. c #96A04E",
"%. c #9E846A",
"&. c #A1846A",
"*. c #AD856C",
"=. c #B8856E",
"-. c #AA8C73",
";. c #B58F76",
":. c #B19476",
">. c #BE9378",
",. c #E2975E",
"<. c #CB8C68",
"1. c #D19465",
"2. c #D7986D",
"3. c #C39276",
"4. c #CC9574",
"5. c #C69479",
"6. c #C79E78",
"7. c #DA9E74",
"8. c #EEA160",
"9. c #E4AA7C",
"0. c #F0AE77",
"q. c #C3A182",
"w. c #CAA686",
"e. c #D6A987",
"r. c #D7AA88",
"t. c #DCAF8C",
"y. c #DDB18D",
"u. c #F1B581",
"i. c #F1BC8B",
"p. c #E0B590",
"a. c #E2BD96",
"s. c #E8BE97",
"d. c #EAC199",
"f. c #F3C598",
"g. c #F4CCA1",
/* pixels */
"J T { O.| } ] } ) | } _ | } | +.| } +. .| | } | | | { } ) )  .Y ",
") X.} } | { | | | | { | | | | | { | | | +.+.X.} | _ } _ ) ) X._ ",
") o.} | } { | +.+.| | | ( F F G H S H F H H _ O.| _ _ | _ | } _ ",
"} ] } { [ | { | +.+.! L > 4 9 e i u y e i e @.) } | | | } | | _ ",
"| ) | | [ { | } | / * p h h g g f f d f f g 7 t ` _ | | | } _ | ",
"{ | { | { | | { Q j h v h d 5.t.r.t.N 5.r.r.w.l ~ O.| | +.| | { ",
"| { | { +.+.| | S x n n e e =.;.-.-.c m -.-.;.k ~ | +.} { | | | ",
"{ _ { | | O.+.| G x n v 0 p g 7 4 4 y 9 4 4 u 9 ~ | | | | { } | ",
"{ _ | | | | O.+.S x v x 8 p f a 6 w s s 6 w d 7 ~ } | } _ } | | ",
"| } } | } | } | S x c y 5 u f g u >.e.N p d y K _ _ } | X.| | | ",
"| } | | } | } _ S 0 e 5 4 p g 5.e.d.w.k w w + V Z _ _ | | +.| } ",
"| | +.| | +.| _ S . 4 4 5 p g y.g.w.r . . .   &.t ^ | | +.O.| | ",
"} X.| +.| +.| | ~ < 4 e y d g 7.u.1.#.#.#.6.q.a.%.E +.| +.| | { ",
"| } X.} | | | Q A ; 4 p g g g b ,.8.8.8.8.0.u.6.$._ +.| { | _ | ",
"| } | | | _ I > O O 5 p g g g g b B 9.i.i.2.z L _ | | | |  .| | ",
"| | | +.| | C O w p y d g g g g g 5.d.g.f.3.p S ` | |  .| | | _ ",
"| +.O.| | ] V @ u g g g g g g g 5.d.g.g.g.p.N u 3 W _ ] | O.| | ",
"+.O.| | I Z 1 y d g y 9 a g g g t.g.g.g.g.g.3.g u K R | | | +.| ",
"O.| | | V & s f g y + o u g g 5.s.g.g.g.g.g.p.N g & ~ } } | O.| ",
"| } | } C u g g g p $ # p g g y.g.g.g.g.g.g.g.3.g & U | ' | | ..",
"} | | | 2 y g g g g & @ p g g y.g.g.g.g.g.g.g.3.g - U | | { | | ",
"| ' | [ V p g g g g & # p g g y.g.g.g.g.g.g.g.3.g & ~ | | | ] | ",
"| } [ ' C 7 a g g p $ # p g g 3.s.g.g.g.g.g.t.M g - ~ | } ] Y ] ",
"] ' | } R < 7 y y 7   # u g g g y.g.g.g.g.g.5.g u & Q ' | ..T Y ",
"' ' | | | ^ < X O O O 5 u g g y &.:.a.i.f.t.M y & . I } ' ' } Y ",
"T ..[ | ] o.^ :   O % w s g g & C : *.<.4.M g -   3 R | ] ..| J ",
"..[ ] } T | O.V X 5 6 w y s y + R V = i s g g - S ' W ] } ) ..J ",
"_ ' Y Y } | { R > # 5 5 e s & C _ R : # p g y + P ] ' } ] J ..J ",
"J T J R ) ) { | V   % w s g & R { | V # w s - 2 [ | ' ' J J J ) ",
"| } | | { | | +.R P , 7 0 q D [ | [ R , O - + R O.| | | | | | } ",
"| | { } | { | | O.| ^ P P P ] | { | | I P A P [ { +.| +.| } } | ",
"} | } | | { | { | | | ' | { | +.| | { | | { | | { | | | { | | { "
};
=======
static char * person_d_xpm[] = {
"32 32 228 2",
"  	c None",
". 	c #84654D",
"+ 	c #906A4E",
"@ 	c #765A45",
"# 	c #6B5341",
"$ 	c #6D5643",
"% 	c #5D4B3C",
"& 	c #5A4739",
"* 	c #5D4A3C",
"= 	c #775C46",
"- 	c #6E5745",
"; 	c #5B4739",
"> 	c #5C4C3E",
", 	c #775C48",
"' 	c #705844",
") 	c #614D3D",
"! 	c #5C493B",
"~ 	c #58463A",
"{ 	c #755A44",
"] 	c #695240",
"^ 	c #574538",
"/ 	c #6F5340",
"( 	c #735742",
"_ 	c #695341",
": 	c #6D5644",
"< 	c #584538",
"[ 	c #5D4C3F",
"} 	c #775D48",
"| 	c #705642",
"1 	c #665140",
"2 	c #88664D",
"3 	c #83674E",
"4 	c #86654D",
"5 	c #6E5441",
"6 	c #5F4C3D",
"7 	c #5F4A3C",
"8 	c #614B3C",
"9 	c #614B3B",
"0 	c #604B3B",
"a 	c #5D4A3B",
"b 	c #5E493A",
"c 	c #5C483A",
"d 	c #5D493B",
"e 	c #5D4839",
"f 	c #604A3A",
"g 	c #624C3C",
"h 	c #5F4A3B",
"i 	c #5D493A",
"j 	c #5A4537",
"k 	c #5B493B",
"l 	c #604B3C",
"m 	c #604C3C",
"n 	c #5F4C3C",
"o 	c #664F3E",
"p 	c #7C5F49",
"q 	c #8D684E",
"r 	c #88694E",
"s 	c #644D3D",
"t 	c #614C3C",
"u 	c #644E3E",
"v 	c #5D4739",
"w 	c #624C3D",
"x 	c #5E4839",
"y 	c #604A3B",
"z 	c #604A3C",
"A 	c #5F493A",
"B 	c #634D3D",
"C 	c #634C3C",
"D 	c #80634B",
"E 	c #87694E",
"F 	c #82624B",
"G 	c #564337",
"H 	c #5C4738",
"I 	c #5B4638",
"J 	c #5E4939",
"K 	c #5D4738",
"L 	c #6A5442",
"M 	c #7E634D",
"N 	c #6C5341",
"O 	c #5E4A3B",
"P 	c #624B3B",
"Q 	c #685141",
"R 	c #5F4A3A",
"S 	c #654E3E",
"T 	c #5D483A",
"U 	c #6B5442",
"V 	c #83654D",
"W 	c #674E3D",
"X 	c #664F3F",
"Y 	c #000000",
"Z 	c #7A5F49",
"` 	c #8F6A4E",
" .	c #7E624B",
"..	c #58473A",
"+.	c #654F3F",
"@.	c #4F2C14",
"#.	c #5A483A",
"$.	c #5E4B3C",
"%.	c #7A614C",
"&.	c #634C3D",
"*.	c #885B39",
"=.	c #7E5E47",
"-.	c #805F48",
";.	c #594638",
">.	c #5C4638",
",.	c #D78244",
"'.	c #685240",
").	c #7D634D",
"!.	c #8E684D",
"~.	c #654D3D",
"{.	c #604C3D",
"].	c #624B3C",
"^.	c #5A4639",
"/.	c #785D47",
"(.	c #8A694E",
"_.	c #7F624B",
":.	c #685340",
"<.	c #6D5745",
"[.	c #8B674C",
"}.	c #826149",
"|.	c #644D3C",
"1.	c #624D3D",
"2.	c #604E3F",
"3.	c #725642",
"4.	c #85654E",
"5.	c #89664D",
"6.	c #5E4A3C",
"7.	c #765B46",
"8.	c #745844",
"9.	c #81644D",
"0.	c #574537",
"a.	c #84634A",
"b.	c #7E6049",
"c.	c #5A4A3C",
"d.	c #7D634E",
"e.	c #84654C",
"f.	c #554437",
"g.	c #614C3D",
"h.	c #5B483A",
"i.	c #8A674D",
"j.	c #87654D",
"k.	c #765B45",
"l.	c #88684E",
"m.	c #816149",
"n.	c #544337",
"o.	c #6C5342",
"p.	c #83654E",
"q.	c #8B684E",
"r.	c #6A5240",
"s.	c #584537",
"t.	c #765D48",
"u.	c #916A4E",
"v.	c #88674E",
"w.	c #684F3E",
"x.	c #554337",
"y.	c #846349",
"z.	c #7E624D",
"A.	c #5A473A",
"B.	c #89674D",
"C.	c #7F5F47",
"D.	c #584638",
"E.	c #68513F",
"F.	c #8F694D",
"G.	c #664E3D",
"H.	c #584639",
"I.	c #82624A",
"J.	c #795F4A",
"K.	c #64503F",
"L.	c #5F493B",
"M.	c #85654D",
"N.	c #836149",
"O.	c #654E3D",
"P.	c #82644D",
"Q.	c #795A45",
"R.	c #936B4E",
"S.	c #84644B",
"T.	c #5E4B3D",
"U.	c #5C4739",
"V.	c #59473A",
"W.	c #715845",
"X.	c #8E6A4E",
"Y.	c #7A5C46",
"Z.	c #604E3E",
"`.	c #5F4B3C",
" +	c #594537",
".+	c #5C4839",
"++	c #614E3E",
"@+	c #82664E",
"#+	c #8C684D",
"$+	c #6F5440",
"%+	c #634E3E",
"&+	c #5A493B",
"*+	c #6C5543",
"=+	c #564539",
"-+	c #5B493C",
";+	c #705947",
">+	c #6B5543",
",+	c #5C4B3D",
"'+	c #685342",
")+	c #665040",
"!+	c #574639",
"~+	c #67503F",
"{+	c #695342",
"]+	c #564438",
"^+	c #5C4A3C",
"/+	c #705A47",
"(+	c #665242",
"_+	c #866349",
":+	c #89684E",
"<+	c #82644C",
"[+	c #81624A",
"}+	c #87654C",
"|+	c #745B46",
"1+	c #8D684D",
"2+	c #87684E",
"3+	c #7D6149",
"4+	c #755A46",
"5+	c #80624A",
"6+	c #88664C",
"7+	c #8C694E",
"8+	c #785C47",
"9+	c #7E5F48",
"0+	c #916A4D",
"a+	c #8A684E",
"b+	c #8B674D",
"c+	c #7A5E49",
"d+	c #7D5F49",
"e+	c #84664E",
"                                                                ",
". + @ # $ % & * = - ; > , ' ) ! ~ { ] ^ / ( _ : < [ } | 1 + 2 3 ",
"4 5 6 7 8 9 0 a b c d 6 e f g 9 h i j k l 7 m c d n e h 6 o p q ",
"r # h g s 9 t e g u v l 9 g g w x y g 9 b z A B v 8 9 9 C y D E ",
"F G y 9 x j H I J u g 9 B A K A A 9 B 9 9 9 9 C g 9 g 9 f b L M ",
"N h O g g 9 P 9 y 9 f J J g y H H A Q R e I f S B 0 e y e T U V ",
"W i e J x e 9 9 A 9 b y X R K J Y Y Y Y 9 A y x x A 9 g y d Z ` ",
" ...9 9 B 9 9 x 0 e H H f 9 +.9 Y @.@.Y 9 9 9 9 x A 9 B 9 #.$.%.",
"D ; w f 9 &.y R 9 9 g J J f 9 g Y *.@.Y Y Y Y Y Y Y Y 9 t ) =.2 ",
"-.;.9 C >.e H x &.b e x 9 9 9 Y Y *.,.,.,.,.,.,.*.*.Y Y e i '.).",
"!.~.{.O f B P g 9 9 g 9 R ].Y Y ,.,.,.,.Y Y ,.,.*.*.*.Y y ^./.(.",
"_.:.c B y y l H J X B e J Y Y ,.,.,.,.,.,.,.,.,.,.*.*.Y b O <.[.",
"}.|.e f 9 g R Y Y Y Y Y Y Y ,.,.,.,.,.,.,.,.,.,.,.,.*.Y 1.2.3.4.",
"5.6.f f 9 9 Y Y ,.,.,.,.,.,.,.,.,.,.,.,.,.,.,.,.,.,.*.Y 9 h 7.V ",
"8.i b P B J Y ,.,.,.,.,.,.,.,.,.,.,.,.,.Y Y Y Y Y Y Y Y y e C 9.",
"f e 0 g e e Y ,.,.,.*.*.,.,.,.,.,.,.,.Y Y R y 9 9 R w 9 e l 0.a.",
"b.c.e x C 9 Y ,.,.,.,.,.,.,.,.,.,.,.,.Y g f e e g 0 J 9 0 e ] d.",
"e.f.g.f 9 &.Y ,.*.*.,.,.*.*.,.,.,.,.,.Y J J 9 9 9 f 9 9 y h.# i.",
"j.R 9 9 C Y Y ,.,.,.,.,.,.,.,.,.,.,.Y Y 9 A y 9 9 9 x g 9 b k.l.",
"m.n.O g 9 Y ,.,.,.,.,.,.,.,.,.,.,.,.Y g J g 0 e v K B f b h.o.p.",
"q.r.i R Y Y @.,.,.,.,.Y Y Y Y ,.,.@.Y A y e A X ].x y g A s.t.u.",
"v.w.#.9 Y @.@.@.,.Y Y Y e Y Y Y @.@.Y Y 9 g 9 9 g 9 A R O x.y.z.",
"5.A.f y Y @.@.@.Y Y Y 9 9 Y Y Y @.@.@.Y H J C A e x 9 y f 6.8.B.",
"C.D.f g Y Y @.@.Y Y Y Y g Y Y Y Y @.@.Y H K x R y 9 B B 9 b E.).",
"F.G.{.O R Y @.@.Y g Y Y 9 Y Y g Y Y @.Y g g f 9 9 A R 9 e l H.I.",
"J.K.c C 9 Y Y Y Y f R y 9 9 A x X Y Y Y L.R f e 9 9 8 9 9 e $.M.",
"N.O.e A 9 g A P g 9 A y g s y H H J g y A g 9 9 g 9 9 9 y < # P.",
"j.#.9 9 9 C x A y &.f x x f C A x g 9 9 C A e A 9 R e f 9 i Q.R.",
"S.T.U.A R e J 8 X 0 9 R J A e J f X e b f y 9 y 9 A J A J V.W.X.",
"V Y.;.Z.9 y f `.9 e  +% O 9 9 f l y t 8 O .+f .+ +% O ++a G.M.@+",
"v.#+$+%+o.a &+O : *+=+-+;+>+0 ,+& '+)+!+/ | ~+{+]+^+/+(+]._+:+i.",
"(.<+[+}+E |+b.[+B.1+p 5.u.2+3+4+5+6+7+8+9+0+a+b+c+i.u.B.d+B.e+E "};
>>>>>>> master
