/* XPM */
static char * person_d_xpm[] = {
"32 32 228 2",
"  	c None",
". 	c #84654D",
"+ 	c #906A4E",
"@ 	c #765A45",
"# 	c #6B5341",
"$ 	c #6D5643",
"% 	c #5D4B3C",
"& 	c #5A4739",
"* 	c #5D4A3C",
"= 	c #775C46",
"- 	c #6E5745",
"; 	c #5B4739",
"> 	c #5C4C3E",
", 	c #775C48",
"' 	c #705844",
") 	c #614D3D",
"! 	c #5C493B",
"~ 	c #58463A",
"{ 	c #755A44",
"] 	c #695240",
"^ 	c #574538",
"/ 	c #6F5340",
"( 	c #735742",
"_ 	c #695341",
": 	c #6D5644",
"< 	c #584538",
"[ 	c #5D4C3F",
"} 	c #775D48",
"| 	c #705642",
"1 	c #665140",
"2 	c #88664D",
"3 	c #83674E",
"4 	c #86654D",
"5 	c #6E5441",
"6 	c #5F4C3D",
"7 	c #5F4A3C",
"8 	c #614B3C",
"9 	c #614B3B",
"0 	c #604B3B",
"a 	c #5D4A3B",
"b 	c #5E493A",
"c 	c #5C483A",
"d 	c #5D493B",
"e 	c #5D4839",
"f 	c #604A3A",
"g 	c #624C3C",
"h 	c #5F4A3B",
"i 	c #5D493A",
"j 	c #5A4537",
"k 	c #5B493B",
"l 	c #604B3C",
"m 	c #604C3C",
"n 	c #5F4C3C",
"o 	c #664F3E",
"p 	c #7C5F49",
"q 	c #8D684E",
"r 	c #88694E",
"s 	c #644D3D",
"t 	c #614C3C",
"u 	c #644E3E",
"v 	c #5D4739",
"w 	c #624C3D",
"x 	c #5E4839",
"y 	c #604A3B",
"z 	c #604A3C",
"A 	c #5F493A",
"B 	c #634D3D",
"C 	c #634C3C",
"D 	c #80634B",
"E 	c #87694E",
"F 	c #82624B",
"G 	c #564337",
"H 	c #5C4738",
"I 	c #5B4638",
"J 	c #5E4939",
"K 	c #5D4738",
"L 	c #6A5442",
"M 	c #7E634D",
"N 	c #6C5341",
"O 	c #5E4A3B",
"P 	c #624B3B",
"Q 	c #685141",
"R 	c #5F4A3A",
"S 	c #654E3E",
"T 	c #5D483A",
"U 	c #6B5442",
"V 	c #83654D",
"W 	c #674E3D",
"X 	c #664F3F",
"Y 	c #000000",
"Z 	c #7A5F49",
"` 	c #8F6A4E",
" .	c #7E624B",
"..	c #58473A",
"+.	c #654F3F",
"@.	c #4F2C14",
"#.	c #5A483A",
"$.	c #5E4B3C",
"%.	c #7A614C",
"&.	c #634C3D",
"*.	c #885B39",
"=.	c #7E5E47",
"-.	c #805F48",
";.	c #594638",
">.	c #5C4638",
",.	c #D78244",
"'.	c #685240",
").	c #7D634D",
"!.	c #8E684D",
"~.	c #654D3D",
"{.	c #604C3D",
"].	c #624B3C",
"^.	c #5A4639",
"/.	c #785D47",
"(.	c #8A694E",
"_.	c #7F624B",
":.	c #685340",
"<.	c #6D5745",
"[.	c #8B674C",
"}.	c #826149",
"|.	c #644D3C",
"1.	c #624D3D",
"2.	c #604E3F",
"3.	c #725642",
"4.	c #85654E",
"5.	c #89664D",
"6.	c #5E4A3C",
"7.	c #765B46",
"8.	c #745844",
"9.	c #81644D",
"0.	c #574537",
"a.	c #84634A",
"b.	c #7E6049",
"c.	c #5A4A3C",
"d.	c #7D634E",
"e.	c #84654C",
"f.	c #554437",
"g.	c #614C3D",
"h.	c #5B483A",
"i.	c #8A674D",
"j.	c #87654D",
"k.	c #765B45",
"l.	c #88684E",
"m.	c #816149",
"n.	c #544337",
"o.	c #6C5342",
"p.	c #83654E",
"q.	c #8B684E",
"r.	c #6A5240",
"s.	c #584537",
"t.	c #765D48",
"u.	c #916A4E",
"v.	c #88674E",
"w.	c #684F3E",
"x.	c #554337",
"y.	c #846349",
"z.	c #7E624D",
"A.	c #5A473A",
"B.	c #89674D",
"C.	c #7F5F47",
"D.	c #584638",
"E.	c #68513F",
"F.	c #8F694D",
"G.	c #664E3D",
"H.	c #584639",
"I.	c #82624A",
"J.	c #795F4A",
"K.	c #64503F",
"L.	c #5F493B",
"M.	c #85654D",
"N.	c #836149",
"O.	c #654E3D",
"P.	c #82644D",
"Q.	c #795A45",
"R.	c #936B4E",
"S.	c #84644B",
"T.	c #5E4B3D",
"U.	c #5C4739",
"V.	c #59473A",
"W.	c #715845",
"X.	c #8E6A4E",
"Y.	c #7A5C46",
"Z.	c #604E3E",
"`.	c #5F4B3C",
" +	c #594537",
".+	c #5C4839",
"++	c #614E3E",
"@+	c #82664E",
"#+	c #8C684D",
"$+	c #6F5440",
"%+	c #634E3E",
"&+	c #5A493B",
"*+	c #6C5543",
"=+	c #564539",
"-+	c #5B493C",
";+	c #705947",
">+	c #6B5543",
",+	c #5C4B3D",
"'+	c #685342",
")+	c #665040",
"!+	c #574639",
"~+	c #67503F",
"{+	c #695342",
"]+	c #564438",
"^+	c #5C4A3C",
"/+	c #705A47",
"(+	c #665242",
"_+	c #866349",
":+	c #89684E",
"<+	c #82644C",
"[+	c #81624A",
"}+	c #87654C",
"|+	c #745B46",
"1+	c #8D684D",
"2+	c #87684E",
"3+	c #7D6149",
"4+	c #755A46",
"5+	c #80624A",
"6+	c #88664C",
"7+	c #8C694E",
"8+	c #785C47",
"9+	c #7E5F48",
"0+	c #916A4D",
"a+	c #8A684E",
"b+	c #8B674D",
"c+	c #7A5E49",
"d+	c #7D5F49",
"e+	c #84664E",
"                                                                ",
". + @ # $ % & * = - ; > , ' ) ! ~ { ] ^ / ( _ : < [ } | 1 + 2 3 ",
"4 5 6 7 8 9 0 a b c d 6 e f g 9 h i j k l 7 m c d n e h 6 o p q ",
"r # h g s 9 t e g u v l 9 g g w x y g 9 b z A B v 8 9 9 C y D E ",
"F G y 9 x j H I J u g 9 B A K A A 9 B 9 9 9 9 C g 9 g 9 f b L M ",
"N h O g g 9 P 9 y 9 f J J g y H H A Q R e I f S B 0 e y e T U V ",
"W i e J x e 9 9 A 9 b y X R K J Y Y Y Y 9 A y x x A 9 g y d Z ` ",
" ...9 9 B 9 9 x 0 e H H f 9 +.9 Y @.@.Y 9 9 9 9 x A 9 B 9 #.$.%.",
"D ; w f 9 &.y R 9 9 g J J f 9 g Y *.@.Y Y Y Y Y Y Y Y 9 t ) =.2 ",
"-.;.9 C >.e H x &.b e x 9 9 9 Y Y *.,.,.,.,.,.,.*.*.Y Y e i '.).",
"!.~.{.O f B P g 9 9 g 9 R ].Y Y ,.,.,.,.Y Y ,.,.*.*.*.Y y ^./.(.",
"_.:.c B y y l H J X B e J Y Y ,.,.,.,.,.,.,.,.,.,.*.*.Y b O <.[.",
"}.|.e f 9 g R Y Y Y Y Y Y Y ,.,.,.,.,.,.,.,.,.,.,.,.*.Y 1.2.3.4.",
"5.6.f f 9 9 Y Y ,.,.,.,.,.,.,.,.,.,.,.,.,.,.,.,.,.,.*.Y 9 h 7.V ",
"8.i b P B J Y ,.,.,.,.,.,.,.,.,.,.,.,.,.Y Y Y Y Y Y Y Y y e C 9.",
"f e 0 g e e Y ,.,.,.*.*.,.,.,.,.,.,.,.Y Y R y 9 9 R w 9 e l 0.a.",
"b.c.e x C 9 Y ,.,.,.,.,.,.,.,.,.,.,.,.Y g f e e g 0 J 9 0 e ] d.",
"e.f.g.f 9 &.Y ,.*.*.,.,.*.*.,.,.,.,.,.Y J J 9 9 9 f 9 9 y h.# i.",
"j.R 9 9 C Y Y ,.,.,.,.,.,.,.,.,.,.,.Y Y 9 A y 9 9 9 x g 9 b k.l.",
"m.n.O g 9 Y ,.,.,.,.,.,.,.,.,.,.,.,.Y g J g 0 e v K B f b h.o.p.",
"q.r.i R Y Y @.,.,.,.,.Y Y Y Y ,.,.@.Y A y e A X ].x y g A s.t.u.",
"v.w.#.9 Y @.@.@.,.Y Y Y e Y Y Y @.@.Y Y 9 g 9 9 g 9 A R O x.y.z.",
"5.A.f y Y @.@.@.Y Y Y 9 9 Y Y Y @.@.@.Y H J C A e x 9 y f 6.8.B.",
"C.D.f g Y Y @.@.Y Y Y Y g Y Y Y Y @.@.Y H K x R y 9 B B 9 b E.).",
"F.G.{.O R Y @.@.Y g Y Y 9 Y Y g Y Y @.Y g g f 9 9 A R 9 e l H.I.",
"J.K.c C 9 Y Y Y Y f R y 9 9 A x X Y Y Y L.R f e 9 9 8 9 9 e $.M.",
"N.O.e A 9 g A P g 9 A y g s y H H J g y A g 9 9 g 9 9 9 y < # P.",
"j.#.9 9 9 C x A y &.f x x f C A x g 9 9 C A e A 9 R e f 9 i Q.R.",
"S.T.U.A R e J 8 X 0 9 R J A e J f X e b f y 9 y 9 A J A J V.W.X.",
"V Y.;.Z.9 y f `.9 e  +% O 9 9 f l y t 8 O .+f .+ +% O ++a G.M.@+",
"v.#+$+%+o.a &+O : *+=+-+;+>+0 ,+& '+)+!+/ | ~+{+]+^+/+(+]._+:+i.",
"(.<+[+}+E |+b.[+B.1+p 5.u.2+3+4+5+6+7+8+9+0+a+b+c+i.u.B.d+B.e+E "};
