/* XPM */
static char * person_a_xpm[] = {
"32 32 227 2",
"  	c None",
". 	c #84654D",
"+ 	c #906A4E",
"@ 	c #765A45",
"# 	c #6B5341",
"$ 	c #6D5643",
"% 	c #5D4B3C",
"& 	c #5A4739",
"* 	c #5D4A3C",
"= 	c #775C46",
"- 	c #6E5745",
"; 	c #5B4739",
"> 	c #5C4C3E",
", 	c #775C48",
"' 	c #705844",
") 	c #614D3D",
"! 	c #5C493B",
"~ 	c #58463A",
"{ 	c #755A44",
"] 	c #695240",
"^ 	c #574538",
"/ 	c #6F5340",
"( 	c #735742",
"_ 	c #695341",
": 	c #6D5644",
"< 	c #584538",
"[ 	c #5D4C3F",
"} 	c #775D48",
"| 	c #705642",
"1 	c #665140",
"2 	c #88664D",
"3 	c #83674E",
"4 	c #86654D",
"5 	c #6E5441",
"6 	c #5F4C3D",
"7 	c #5F4A3C",
"8 	c #614B3C",
"9 	c #614B3B",
"0 	c #604B3B",
"a 	c #5D4A3B",
"b 	c #5E493A",
"c 	c #5C483A",
"d 	c #5D493B",
"e 	c #5D4839",
"f 	c #604A3A",
"g 	c #624C3C",
"h 	c #5F4A3B",
"i 	c #5D493A",
"j 	c #5A4537",
"k 	c #5B493B",
"l 	c #604B3C",
"m 	c #604C3C",
"n 	c #5F4C3C",
"o 	c #664F3E",
"p 	c #7C5F49",
"q 	c #8D684E",
"r 	c #88694E",
"s 	c #644D3D",
"t 	c #614C3C",
"u 	c #644E3E",
"v 	c #5D4739",
"w 	c #624C3D",
"x 	c #5E4839",
"y 	c #604A3B",
"z 	c #604A3C",
"A 	c #5F493A",
"B 	c #634D3D",
"C 	c #634C3C",
"D 	c #80634B",
"E 	c #87694E",
"F 	c #82624B",
"G 	c #564337",
"H 	c #5C4738",
"I 	c #5B4638",
"J 	c #5E4939",
"K 	c #5D4738",
"L 	c #6A5442",
"M 	c #7E634D",
"N 	c #6C5341",
"O 	c #5E4A3B",
"P 	c #624B3B",
"Q 	c #685141",
"R 	c #5F4A3A",
"S 	c #654E3E",
"T 	c #5D483A",
"U 	c #6B5442",
"V 	c #83654D",
"W 	c #674E3D",
"X 	c #000000",
"Y 	c #7A5F49",
"Z 	c #8F6A4E",
"` 	c #7E624B",
" .	c #58473A",
"..	c #4F2C14",
"+.	c #5A483A",
"@.	c #5E4B3C",
"#.	c #7A614C",
"$.	c #885B39",
"%.	c #7E5E47",
"&.	c #805F48",
"*.	c #594638",
"=.	c #D78244",
"-.	c #685240",
";.	c #7D634D",
">.	c #8E684D",
",.	c #654D3D",
"'.	c #604C3D",
").	c #5A4639",
"!.	c #785D47",
"~.	c #8A694E",
"{.	c #7F624B",
"].	c #685340",
"^.	c #675040",
"/.	c #6D5745",
"(.	c #8B674C",
"_.	c #826149",
":.	c #644D3C",
"<.	c #624D3D",
"[.	c #604E3F",
"}.	c #725642",
"|.	c #85654E",
"1.	c #89664D",
"2.	c #5E4A3C",
"3.	c #765B46",
"4.	c #745844",
"5.	c #81644D",
"6.	c #574537",
"7.	c #84634A",
"8.	c #7E6049",
"9.	c #5A4A3C",
"0.	c #7D634E",
"a.	c #84654C",
"b.	c #554437",
"c.	c #614C3D",
"d.	c #634C3D",
"e.	c #5B483A",
"f.	c #8A674D",
"g.	c #87654D",
"h.	c #765B45",
"i.	c #88684E",
"j.	c #816149",
"k.	c #544337",
"l.	c #6C5342",
"m.	c #83654E",
"n.	c #8B684E",
"o.	c #6A5240",
"p.	c #584537",
"q.	c #765D48",
"r.	c #916A4E",
"s.	c #88674E",
"t.	c #684F3E",
"u.	c #664F3F",
"v.	c #554337",
"w.	c #846349",
"x.	c #7E624D",
"y.	c #5A473A",
"z.	c #89674D",
"A.	c #7F5F47",
"B.	c #584638",
"C.	c #68513F",
"D.	c #8F694D",
"E.	c #664E3D",
"F.	c #584639",
"G.	c #82624A",
"H.	c #795F4A",
"I.	c #64503F",
"J.	c #5F493B",
"K.	c #85654D",
"L.	c #836149",
"M.	c #654E3D",
"N.	c #82644D",
"O.	c #795A45",
"P.	c #936B4E",
"Q.	c #84644B",
"R.	c #5E4B3D",
"S.	c #5C4739",
"T.	c #59473A",
"U.	c #715845",
"V.	c #8E6A4E",
"W.	c #7A5C46",
"X.	c #604E3E",
"Y.	c #5F4B3C",
"Z.	c #594537",
"`.	c #5C4839",
" +	c #614E3E",
".+	c #82664E",
"++	c #8C684D",
"@+	c #6F5440",
"#+	c #634E3E",
"$+	c #5A493B",
"%+	c #6C5543",
"&+	c #564539",
"*+	c #5B493C",
"=+	c #705947",
"-+	c #6B5543",
";+	c #5C4B3D",
">+	c #685342",
",+	c #665040",
"'+	c #574639",
")+	c #67503F",
"!+	c #695342",
"~+	c #564438",
"{+	c #5C4A3C",
"]+	c #705A47",
"^+	c #665242",
"/+	c #624B3C",
"(+	c #866349",
"_+	c #89684E",
":+	c #82644C",
"<+	c #81624A",
"[+	c #87654C",
"}+	c #745B46",
"|+	c #8D684D",
"1+	c #87684E",
"2+	c #7D6149",
"3+	c #755A46",
"4+	c #80624A",
"5+	c #88664C",
"6+	c #8C694E",
"7+	c #785C47",
"8+	c #7E5F48",
"9+	c #916A4D",
"0+	c #8A684E",
"a+	c #8B674D",
"b+	c #7A5E49",
"c+	c #7D5F49",
"d+	c #84664E",
"                                                                ",
". + @ # $ % & * = - ; > , ' ) ! ~ { ] ^ / ( _ : < [ } | 1 + 2 3 ",
"4 5 6 7 8 9 0 a b c d 6 e f g 9 h i j k l 7 m c d n e h 6 o p q ",
"r # h g s 9 t e g u v l 9 g g w x y g 9 b z A B v 8 9 9 C y D E ",
"F G y 9 x j H I J u g 9 B A K A A 9 B 9 9 9 9 C g 9 g 9 f b L M ",
"N h O g g 9 P 9 y 9 f J J g y H H A Q R e I f S B 0 e y e T U V ",
"W i e J x e 9 9 A 9 b y X X X X R g g 9 9 A y x x A 9 g y d Y Z ",
"`  .9 9 B 9 9 x 0 e H H X ....X R e 9 9 9 9 9 9 x A 9 B 9 +.@.#.",
"D ; w f 9 X X X X X X X X ..$.X 9 9 J J f g 9 g 9 J J 9 t ) %.2 ",
"&.*.9 C X X $.$.=.=.=.=.=.=.$.X X K 9 g A e A 9 9 9 9 9 e i -.;.",
">.,.'.O X $.$.$.=.=.X X =.=.=.=.X X R x e f 9 S g 9 J g y ).!.~.",
"{.].c B X $.$.=.=.=.=.=.=.=.=.=.=.X X f 9 ^.f I e x 9 9 b O /.(.",
"_.:.e f X $.=.=.=.=.=.=.=.=.=.=.=.=.X X X X X X X H e C <.[.}.|.",
"1.2.f f X $.=.=.=.=.=.=.=.=.=.=.=.=.=.=.=.=.=.=.X X 9 9 9 h 3.V ",
"4.i b P X X X X X X X X =.=.=.=.=.=.=.=.=.=.=.=.=.X g C y e C 5.",
"f e 0 g e e 8 9 x J g X X =.=.=.=.=.=.=.$.$.=.=.=.X w 9 e l 6.7.",
"8.9.e x C 9 9 f 0 9 9 x X =.=.=.=.=.=.=.=.=.=.=.=.X J 9 0 e ] 0.",
"a.b.c.f 9 d.y x 9 f y 9 X =.=.=.=.=.$.$.=.=.$.$.=.X 9 9 y e.# f.",
"g.R 9 9 C 9 9 B 9 9 9 9 X X =.=.=.=.=.=.=.=.=.=.=.X X g 9 b h.i.",
"j.k.O g 9 A J x y g A H J X =.=.=.=.=.=.=.=.=.=.=.=.X f b e.l.m.",
"n.o.i R 9 y y Q f H e J 9 X ..=.=.X X X X =.=.=.=...X X A p.q.r.",
"s.t.+.9 f e e A 9 u.g 9 X X ....X X X s X X X =.......X O v.w.x.",
"1.y.f y 9 g y x J 9 g 9 X ......X X X x H X X X ......X f 2.4.z.",
"A.B.f g H e H x g H H e X ....X X X X e X X X X ....X X 9 b C.;.",
"D.E.'.O R B g g 9 g f g X ..X X 9 X X g X X f X ....X 9 e l F.G.",
"H.I.c C 9 A y H A f R y X X X x u.B x b J.R f X X X X 9 9 e @.K.",
"L.M.e A 9 g A P g 9 A y g s y H H J g y A g 9 9 g 9 9 9 y < # N.",
"g.+.9 9 9 C x A y d.f x x f C A x g 9 9 C A e A 9 R e f 9 i O.P.",
"Q.R.S.A R e J 8 u.0 9 R J A e J f u.e b f y 9 y 9 A J A J T.U.V.",
"V W.*.X.9 y f Y.9 e Z.% O 9 9 f l y t 8 O `.f `.Z.% O  +a E.K..+",
"s.++@+#+l.a $+O : %+&+*+=+-+0 ;+& >+,+'+/ | )+!+~+{+]+^+/+(+_+f.",
"~.:+<+[+E }+8.<+z.|+p 1.r.1+2+3+4+5+6+7+8+9+0+a+b+f.r.z.c+z.d+E "};
