/* XPM */
static char * person_d_xpm[] = {
"32 32 323 2",
"  	c None",
". 	c #84654D",
"+ 	c #906A4E",
"@ 	c #765A45",
"# 	c #7E6844",
"$ 	c #A08548",
"% 	c #6F5D3F",
"& 	c #5A4739",
"* 	c #5D4A3C",
"= 	c #775C46",
"- 	c #5F4D3F",
"; 	c #5B4739",
"> 	c #5C4C3E",
", 	c #775C48",
"' 	c #705844",
") 	c #614D3D",
"! 	c #5C493B",
"~ 	c #58463A",
"{ 	c #755A44",
"] 	c #695240",
"^ 	c #574538",
"/ 	c #6F5340",
"( 	c #735742",
"_ 	c #695341",
": 	c #6D5644",
"< 	c #584538",
"[ 	c #5D4C3F",
"} 	c #775D48",
"| 	c #705642",
"1 	c #665140",
"2 	c #88664D",
"3 	c #83674E",
"4 	c #86654D",
"5 	c #6E5441",
"6 	c #5F4C3D",
"7 	c #756140",
"8 	c #A58443",
"9 	c #8E7844",
"0 	c #6A553D",
"a 	c #5D4A3B",
"b 	c #5E493A",
"c 	c #4B4036",
"d 	c #5D493B",
"e 	c #5D4839",
"f 	c #604A3A",
"g 	c #624C3C",
"h 	c #614B3B",
"i 	c #5F4A3B",
"j 	c #5D493A",
"k 	c #5A4537",
"l 	c #5B493B",
"m 	c #604B3C",
"n 	c #5F4A3C",
"o 	c #604C3C",
"p 	c #5C483A",
"q 	c #5F4C3C",
"r 	c #664F3E",
"s 	c #7C5F49",
"t 	c #8D684E",
"u 	c #88694E",
"v 	c #6B5341",
"w 	c #604B3B",
"x 	c #796440",
"y 	c #9B7B42",
"z 	c #8D7241",
"A 	c #A48B48",
"B 	c #5E4939",
"C 	c #7B6841",
"D 	c #52453B",
"E 	c #5D4739",
"F 	c #624C3D",
"G 	c #5E4839",
"H 	c #604A3B",
"I 	c #604A3C",
"J 	c #5F493A",
"K 	c #634D3D",
"L 	c #614B3C",
"M 	c #634C3C",
"N 	c #80634B",
"O 	c #87694E",
"P 	c #82624B",
"Q 	c #564337",
"R 	c #7F6A41",
"S 	c #9B7E43",
"T 	c #8B6A3A",
"U 	c #A48441",
"V 	c #AF8E44",
"W 	c #9C8344",
"X 	c #74603D",
"Y 	c #644E3E",
"Z 	c #5D4738",
"` 	c #6A5442",
" .	c #7E634D",
"..	c #6C5341",
"+.	c #5F4B3B",
"@.	c #A28442",
"#.	c #674730",
"$.	c #7D5832",
"%.	c #815A32",
"&.	c #B5994B",
"*.	c #8B7744",
"=.	c #75613E",
"-.	c #735F3D",
";.	c #5C4738",
">.	c #685141",
",.	c #5F4A3A",
"'.	c #5B4638",
").	c #654E3E",
"!.	c #5D483A",
"~.	c #6B5442",
"{.	c #83654D",
"].	c #674E3D",
"^.	c #704E2D",
"/.	c #4A3629",
"(.	c #553C2B",
"_.	c #533723",
":.	c #7A5C34",
"<.	c #775C3C",
"[.	c #77623F",
"}.	c #9E8346",
"|.	c #705C3D",
"1.	c #000000",
"2.	c #7A5F49",
"3.	c #8F6A4E",
"4.	c #7E624B",
"5.	c #58473A",
"6.	c #584335",
"7.	c #4D3121",
"8.	c #5C422F",
"9.	c #443126",
"0.	c #402D23",
"a.	c #422D21",
"b.	c #5B4738",
"c.	c #73603D",
"d.	c #A58442",
"e.	c #6E5941",
"f.	c #4F2C14",
"g.	c #5A483A",
"h.	c #5E4B3C",
"i.	c #7A614C",
"j.	c #5F493B",
"k.	c #3F2E24",
"l.	c #553A29",
"m.	c #463429",
"n.	c #48362A",
"o.	c #4C3B2E",
"p.	c #634D3C",
"q.	c #76633E",
"r.	c #9A7A40",
"s.	c #8D7240",
"t.	c #885B39",
"u.	c #614C3C",
"v.	c #7E5E47",
"w.	c #805F48",
"x.	c #594638",
"y.	c #614A3B",
"z.	c #3C2920",
"A.	c #503D30",
"B.	c #5A4637",
"C.	c #634C3D",
"D.	c #7D6940",
"E.	c #9A7D42",
"F.	c #8C6A3A",
"G.	c #A58542",
"H.	c #AF8F45",
"I.	c #D78244",
"J.	c #685240",
"K.	c #7D634D",
"L.	c #8E684D",
"M.	c #654D3D",
"N.	c #604C3D",
"O.	c #5E4A3B",
"P.	c #624B3B",
"Q.	c #A28441",
"R.	c #66462F",
"S.	c #5A4639",
"T.	c #785D47",
"U.	c #8A694E",
"V.	c #7F624B",
"W.	c #685340",
"X.	c #664F3F",
"Y.	c #4A3729",
"Z.	c #6D5745",
"`.	c #8B674C",
" +	c #826149",
".+	c #644D3C",
"++	c #624D3D",
"@+	c #604E3F",
"#+	c #725642",
"$+	c #85654E",
"%+	c #89664D",
"&+	c #5E4A3C",
"*+	c #765B46",
"=+	c #745844",
"-+	c #81644D",
";+	c #433126",
">+	c #3F2D23",
",+	c #432E21",
"'+	c #574537",
")+	c #84634A",
"!+	c #7E6049",
"~+	c #5A4A3C",
"{+	c #71542F",
"]+	c #443327",
"^+	c #463529",
"/+	c #4B392D",
"(+	c #7D634E",
"_+	c #84654C",
":+	c #554437",
"<+	c #614C3D",
"[+	c #3A2920",
"}+	c #503E30",
"|+	c #5B483A",
"1+	c #8A674D",
"2+	c #87654D",
"3+	c #796340",
"4+	c #5A4536",
"5+	c #765B45",
"6+	c #88684E",
"7+	c #816149",
"8+	c #544337",
"9+	c #77633F",
"0+	c #6C5342",
"a+	c #83654E",
"b+	c #8B684E",
"c+	c #6A5240",
"d+	c #624B3C",
"e+	c #584537",
"f+	c #765D48",
"g+	c #916A4E",
"h+	c #88674E",
"i+	c #684F3E",
"j+	c #624C3B",
"k+	c #554337",
"l+	c #846349",
"m+	c #7E624D",
"n+	c #5A473A",
"o+	c #9E8445",
"p+	c #89674D",
"q+	c #7F5F47",
"r+	c #584638",
"s+	c #B6994B",
"t+	c #68513F",
"u+	c #8F694D",
"v+	c #664E3D",
"w+	c #704E2E",
"x+	c #6C5331",
"y+	c #584639",
"z+	c #82624A",
"A+	c #795F4A",
"B+	c #64503F",
"C+	c #5A4436",
"D+	c #563D2B",
"E+	c #85654D",
"F+	c #836149",
"G+	c #654E3D",
"H+	c #3F2F24",
"I+	c #563A29",
"J+	c #433227",
"K+	c #473529",
"L+	c #34261D",
"M+	c #513726",
"N+	c #4F3C2F",
"O+	c #82644D",
"P+	c #3E2C22",
"Q+	c #5E483A",
"R+	c #523F31",
"S+	c #795A45",
"T+	c #936B4E",
"U+	c #84644B",
"V+	c #5E4B3D",
"W+	c #5C4739",
"X+	c #59473A",
"Y+	c #715845",
"Z+	c #8E6A4E",
"`+	c #7A5C46",
" @	c #604E3E",
".@	c #5F4B3C",
"+@	c #594537",
"@@	c #5D4B3C",
"#@	c #5C4839",
"$@	c #614E3E",
"%@	c #82664E",
"&@	c #8C684D",
"*@	c #6F5440",
"=@	c #634E3E",
"-@	c #5A493B",
";@	c #6C5543",
">@	c #564539",
",@	c #5B493C",
"'@	c #705947",
")@	c #6B5543",
"!@	c #5C4B3D",
"~@	c #685342",
"{@	c #665040",
"]@	c #574639",
"^@	c #67503F",
"/@	c #695342",
"(@	c #564438",
"_@	c #5C4A3C",
":@	c #705A47",
"<@	c #665242",
"[@	c #866349",
"}@	c #89684E",
"|@	c #82644C",
"1@	c #81624A",
"2@	c #87654C",
"3@	c #745B46",
"4@	c #8D684D",
"5@	c #87684E",
"6@	c #7D6149",
"7@	c #755A46",
"8@	c #80624A",
"9@	c #88664C",
"0@	c #8C694E",
"a@	c #785C47",
"b@	c #7E5F48",
"c@	c #916A4D",
"d@	c #8A684E",
"e@	c #8B674D",
"f@	c #7A5E49",
"g@	c #7D5F49",
"h@	c #84664E",
"                                                                ",
". + @ # $ % & * = - ; > , ' ) ! ~ { ] ^ / ( _ : < [ } | 1 + 2 3 ",
"4 5 6 7 8 9 0 a b c d 6 e f g h i j k l m n o p d q e i 6 r s t ",
"u v w x y z A B C D E m h g g F G H g h b I J K E L h h M H N O ",
"P Q R S T U V W X Y g h K J Z J J h K h h h h M g h g h f b `  .",
"..i +.@.#.$.%.&.*.h f =.-.g H ;.;.b >.,.e '.f ).K w e H e !.~.{.",
"].j e ^./.(._.:.<.h b [.}.|.Z B 1.1.1.1.h J H G G J h g H d 2.3.",
"4.5.6.7.8.9.0.a.b.e ;.c.d.9 e.h 1.f.f.1.h h h h G J h K h g.h.i.",
"N ; j.k.l.m.n.o.;.h p.q.r.s.A p.1.t.f.1.1.1.1.1.1.1.1.h u.) v.2 ",
"w.x.h y.z.A.B.G C.b D.E.F.G.H.1.1.t.I.I.I.I.I.I.t.t.1.1.e j J.K.",
"L.M.N.O.G K P.g h h p.Q.R.$.1.1.I.I.I.I.1.1.I.I.t.t.t.1.H S.T.U.",
"V.W.p K H H m ;.B X.K ^.Y.1.1.I.I.I.I.I.I.I.I.I.I.t.t.1.b O.Z.`.",
" +.+e f h g ,.1.1.1.1.1.1.1.I.I.I.I.I.I.I.I.I.I.I.I.t.1.++@+#+$+",
"%+&+f f h h 1.1.I.I.I.I.I.I.I.I.I.I.I.I.I.I.I.I.I.I.t.1.h i *+{.",
"=+j b P.K B 1.I.I.I.I.I.I.I.I.I.I.I.I.I.1.1.1.1.1.1.1.1.H e M -+",
"f e w g e e 1.I.I.I.t.t.I.I.I.I.I.I.I.1.1.;+>+,+;.,.F h e m '+)+",
"!+~+e G M h 1.I.I.I.I.I.I.I.I.I.I.I.I.1.{+]+^+/+e w B h w e ] (+",
"_+:+<+f h C.1.I.t.t.I.I.t.t.I.I.I.I.I.1.[+}+,.h h f h h H |+v 1+",
"2+,.h h 3+1.1.I.I.I.I.I.I.I.I.I.I.I.1.1.4+J H h h h G g h b 5+6+",
"7+8+O.g 9+1.I.I.I.I.I.I.I.I.I.I.I.I.1.g B g w e E Z K f b |+0+a+",
"b+c+j ,.1.1.f.I.I.I.I.1.1.1.1.I.I.f.1.J H e J X.d+G H g J e+f+g+",
"h+i+g.j+1.f.f.f.I.1.1.1.B 1.1.1.f.f.1.1.h g h h g h J ,.O.k+l+m+",
"%+n+f R 1.f.f.f.1.1.1.H.o+1.1.1.f.f.f.1.;.B M J e G h H f &+=+p+",
"q+r+f p.1.1.f.f.1.1.1.1.s+1.1.1.1.f.f.1.;.Z G ,.H h K K h b t+K.",
"u+v+N.O.w+1.f.f.1.x+1.1.:.1.1.g 1.1.f.1.g g f h h J ,.h e m y+z+",
"A+B+p C+7.1.1.1.1.D+;+>+,+;.J G X.1.1.1.j.,.f e h h L h h e h.E+",
"F+G+e ;.H+I+J+K+L+M+J+n.N+J H ;.;.B g H J g h h g h h h H < v O+",
"2+g.h h J P+A.e Q+P+R+;.G f M J G g h h M J e J h ,.e f h j S+T+",
"U+V+W+J ,.'.B L X.b h ,.B J e B f X.e b f H h H h J B J B X+Y+Z+",
"{.`+x. @h H f .@h e +@@@O.h h f m H u.L O.#@f #@+@@@O.$@a v+E+%@",
"h+&@*@=@0+a -@O.: ;@>@,@'@)@w !@& ~@{@]@/ | ^@/@(@_@:@<@d+[@}@1+",
"U.|@1@2@O 3@!+1@p+4@s %+g+5@6@7@8@9@0@a@b@c@d@e@f@1+g+p+g@p+h@O "};
