/* XPM */
static char *wall[] = {
/* columns rows colors chars-per-pixel */
"32 32 59 1 ",
"  c #533A1E",
". c #55411E",
"X c #57451E",
"o c #58461E",
"O c #6B4B26",
"+ c #7A5A34",
"@ c #8A6A43",
"# c #9D774C",
"$ c #90B41F",
"% c #96BC20",
"& c #98BF21",
"* c #98BD25",
"= c #99C023",
"- c #9AC022",
"; c #9CC227",
": c #9FC724",
"> c #9FC627",
", c #9DC328",
"< c #9FC529",
"1 c #A1C727",
"2 c #A3CB26",
"3 c #A5CE27",
"4 c #A0C729",
"5 c #A2CA28",
"6 c #A3CB28",
"7 c #A3CB29",
"8 c #A5CD2A",
"9 c #A5CE2A",
"0 c #A6CF2B",
"q c #A5CB2E",
"w c #A8CE2E",
"e c #A7D028",
"r c #A8D228",
"t c #ABD529",
"y c #AAD42A",
"u c #ACD52A",
"i c #ACD62B",
"p c #ADD72B",
"a c #A9D22C",
"s c #ADD72D",
"d c #B0DA2E",
"f c #B1DA2F",
"g c #A7CE30",
"h c #A9D031",
"j c #AED431",
"k c #AFD930",
"l c #B0D732",
"z c #B2DB30",
"x c #B2DC35",
"c c #B3DD35",
"v c #B7E034",
"b c #B9E236",
"n c #B18556",
"m c #B4A16F",
"M c #C9A55E",
"N c #C7AC78",
"B c #D4B87F",
"V c #E0C288",
"C c #F0D191",
/* pixels */
"$&3xye5y2y9<yepxyrveppeyyy83*-h%",
"-jgru8yypy9ypyNNmmsuxbyey<56-:h0",
":lrur8ubbpssbNVBBMm8yxpvy<8u,y00",
"32r8<p8uxvybNVBVmBMmppxeryyy8ua,",
"r1yyNNmmyxebNCMCCmBmypypNNmmy88y",
"ey8NVBBMm8ey#CVMMBV@<rpNVBBMmyy8",
"y8NVBVmBMmpy@nCCCV#O<yNVBVmBMmyu",
"8<NCMCCmBmpe+#NNmm+ y8NCMCCmBm8p",
"8<#CVMMBV@ey+NVBBMm yu#CVMMBV@pu",
"p8@nCCCV#OppNVBVmBMmb8@nCCCV#Oyp",
"p8+#nn@#+ ypNCMCCmBmup+#nn@#+ p3",
"yp+#n#+@+ ye#CVMMBV@y8+#n#+@+ py",
"ry+#n#@@+ py@nCCCV#Or<+#n#@@+ p8",
"yr+#n#+@+ bp+#nn@#+ y<+#n#+@+ 1p",
"y8O#n#@@+ xy+#n#+@+ yrO#n#@@+ yy",
"up+#n#@@+ p0+#n#@@+ py+#n#@@+ p1",
"pbO@n#+@+ py+#n#+@+ uyO@n#+@+ pp",
"bcO@##@@O rpO#n#@@+ evO@##@@O by",
"cp @n#+@O.p8+#n#@@+ su @n#+@O.xp",
"u8O@##@@OXuuO@n#+@+ yeO@##@@Ooyr",
"rsO+##+@OX8sO@##@@O ppO+##+@OXyp",
"r< +##+@O.r< @n#+@O yb +##+@O.8y",
"r3O+@#+@O ppO@##@@O pyO+@#+@O %e",
"0: +@#O@O byO+##+@O :8 +@#O@O <-",
"21 O@@O+O cb +##+@O ur O@@O+O y6",
"18 O+@O+O ycO+@#+@O yp O+@O+O y2",
"88r O+OO 8pr +@#O@O ssb O+OO 8j2",
"q868 O  y5us O@@O+O ybyy O  yye2",
"1rq1rr50ryyv O+@O+O ru08yy5rey82",
"yyrsruyfy58eu O+OO rrsuucsypzyp0",
"urarp8uuzuzyup O  rrp4ssrbpbu80y",
"0rrpu0sryyp5p8ubsr8sreurrryp8sy0"
};
